<svg xmlns="http://www.w3.org/2000/svg" xmlns:xlink="http://www.w3.org/1999/xlink" width="1366" zoomAndPan="magnify" viewBox="0 0 1024.5 576" height="768" preserveAspectRatio="xMidYMid meet" version="1.0"><defs><clipPath id="7fb2a6e375"><path d="M 0 0.140625 L 1024 0.140625 L 1024 575.859375 L 0 575.859375 Z M 0 0.140625 " clip-rule="nonzero"/></clipPath><linearGradient x1="683" gradientTransform="matrix(0.749634, 0, 0, 0.749634, 0, 0.140508)" y1="0" x2="683" gradientUnits="userSpaceOnUse" y2="767.999968" id="12c0a0ca92"><stop stop-opacity="1" stop-color="rgb(13.699341%, 50.59967%, 88.198853%)" offset="0"/><stop stop-opacity="1" stop-color="rgb(13.821411%, 50.776672%, 88.22937%)" offset="0.015625"/><stop stop-opacity="1" stop-color="rgb(14.067078%, 51.130676%, 88.291931%)" offset="0.03125"/><stop stop-opacity="1" stop-color="rgb(14.311218%, 51.486206%, 88.354492%)" offset="0.046875"/><stop stop-opacity="1" stop-color="rgb(14.556885%, 51.84021%, 88.417053%)" offset="0.0625"/><stop stop-opacity="1" stop-color="rgb(14.802551%, 52.19574%, 88.479614%)" offset="0.078125"/><stop stop-opacity="1" stop-color="rgb(15.048218%, 52.549744%, 88.542175%)" offset="0.09375"/><stop stop-opacity="1" stop-color="rgb(15.293884%, 52.903748%, 88.604736%)" offset="0.109375"/><stop stop-opacity="1" stop-color="rgb(15.538025%, 53.259277%, 88.667297%)" offset="0.125"/><stop stop-opacity="1" stop-color="rgb(15.783691%, 53.613281%, 88.729858%)" offset="0.140625"/><stop stop-opacity="1" stop-color="rgb(16.029358%, 53.968811%, 88.792419%)" offset="0.15625"/><stop stop-opacity="1" stop-color="rgb(16.275024%, 54.322815%, 88.85498%)" offset="0.171875"/><stop stop-opacity="1" stop-color="rgb(16.519165%, 54.678345%, 88.917542%)" offset="0.1875"/><stop stop-opacity="1" stop-color="rgb(16.764832%, 55.032349%, 88.980103%)" offset="0.203125"/><stop stop-opacity="1" stop-color="rgb(17.010498%, 55.387878%, 89.042664%)" offset="0.21875"/><stop stop-opacity="1" stop-color="rgb(17.256165%, 55.741882%, 89.105225%)" offset="0.234375"/><stop stop-opacity="1" stop-color="rgb(17.500305%, 56.095886%, 89.167786%)" offset="0.25"/><stop stop-opacity="1" stop-color="rgb(17.745972%, 56.451416%, 89.230347%)" offset="0.265625"/><stop stop-opacity="1" stop-color="rgb(17.991638%, 56.80542%, 89.292908%)" offset="0.28125"/><stop stop-opacity="1" stop-color="rgb(18.237305%, 57.16095%, 89.355469%)" offset="0.296875"/><stop stop-opacity="1" stop-color="rgb(18.482971%, 57.514954%, 89.416504%)" offset="0.3125"/><stop stop-opacity="1" stop-color="rgb(18.727112%, 57.870483%, 89.479065%)" offset="0.328125"/><stop stop-opacity="1" stop-color="rgb(18.972778%, 58.224487%, 89.541626%)" offset="0.34375"/><stop stop-opacity="1" stop-color="rgb(19.218445%, 58.580017%, 89.604187%)" offset="0.359375"/><stop stop-opacity="1" stop-color="rgb(19.464111%, 58.934021%, 89.666748%)" offset="0.375"/><stop stop-opacity="1" stop-color="rgb(19.708252%, 59.288025%, 89.729309%)" offset="0.390625"/><stop stop-opacity="1" stop-color="rgb(19.953918%, 59.643555%, 89.79187%)" offset="0.40625"/><stop stop-opacity="1" stop-color="rgb(20.199585%, 59.997559%, 89.854431%)" offset="0.421875"/><stop stop-opacity="1" stop-color="rgb(20.445251%, 60.353088%, 89.916992%)" offset="0.4375"/><stop stop-opacity="1" stop-color="rgb(20.689392%, 60.707092%, 89.979553%)" offset="0.453125"/><stop stop-opacity="1" stop-color="rgb(20.935059%, 61.062622%, 90.042114%)" offset="0.46875"/><stop stop-opacity="1" stop-color="rgb(21.180725%, 61.416626%, 90.104675%)" offset="0.484375"/><stop stop-opacity="1" stop-color="rgb(21.426392%, 61.772156%, 90.167236%)" offset="0.5"/><stop stop-opacity="1" stop-color="rgb(21.672058%, 62.12616%, 90.229797%)" offset="0.515625"/><stop stop-opacity="1" stop-color="rgb(21.916199%, 62.480164%, 90.292358%)" offset="0.53125"/><stop stop-opacity="1" stop-color="rgb(22.161865%, 62.835693%, 90.354919%)" offset="0.546875"/><stop stop-opacity="1" stop-color="rgb(22.407532%, 63.189697%, 90.41748%)" offset="0.5625"/><stop stop-opacity="1" stop-color="rgb(22.653198%, 63.545227%, 90.480042%)" offset="0.578125"/><stop stop-opacity="1" stop-color="rgb(22.897339%, 63.899231%, 90.542603%)" offset="0.59375"/><stop stop-opacity="1" stop-color="rgb(23.143005%, 64.254761%, 90.605164%)" offset="0.609375"/><stop stop-opacity="1" stop-color="rgb(23.388672%, 64.608765%, 90.667725%)" offset="0.625"/><stop stop-opacity="1" stop-color="rgb(23.634338%, 64.964294%, 90.730286%)" offset="0.640625"/><stop stop-opacity="1" stop-color="rgb(23.878479%, 65.318298%, 90.792847%)" offset="0.65625"/><stop stop-opacity="1" stop-color="rgb(24.124146%, 65.673828%, 90.855408%)" offset="0.671875"/><stop stop-opacity="1" stop-color="rgb(24.369812%, 66.027832%, 90.917969%)" offset="0.6875"/><stop stop-opacity="1" stop-color="rgb(24.615479%, 66.381836%, 90.979004%)" offset="0.703125"/><stop stop-opacity="1" stop-color="rgb(24.859619%, 66.737366%, 91.041565%)" offset="0.71875"/><stop stop-opacity="1" stop-color="rgb(25.105286%, 67.09137%, 91.104126%)" offset="0.734375"/><stop stop-opacity="1" stop-color="rgb(25.350952%, 67.446899%, 91.166687%)" offset="0.75"/><stop stop-opacity="1" stop-color="rgb(25.596619%, 67.800903%, 91.229248%)" offset="0.765625"/><stop stop-opacity="1" stop-color="rgb(25.842285%, 68.156433%, 91.291809%)" offset="0.78125"/><stop stop-opacity="1" stop-color="rgb(26.086426%, 68.510437%, 91.35437%)" offset="0.796875"/><stop stop-opacity="1" stop-color="rgb(26.332092%, 68.865967%, 91.416931%)" offset="0.8125"/><stop stop-opacity="1" stop-color="rgb(26.577759%, 69.219971%, 91.479492%)" offset="0.828125"/><stop stop-opacity="1" stop-color="rgb(26.823425%, 69.573975%, 91.542053%)" offset="0.84375"/><stop stop-opacity="1" stop-color="rgb(27.067566%, 69.929504%, 91.604614%)" offset="0.859375"/><stop stop-opacity="1" stop-color="rgb(27.313232%, 70.283508%, 91.667175%)" offset="0.875"/><stop stop-opacity="1" stop-color="rgb(27.558899%, 70.639038%, 91.729736%)" offset="0.890625"/><stop stop-opacity="1" stop-color="rgb(27.804565%, 70.993042%, 91.792297%)" offset="0.90625"/><stop stop-opacity="1" stop-color="rgb(28.048706%, 71.348572%, 91.854858%)" offset="0.921875"/><stop stop-opacity="1" stop-color="rgb(28.294373%, 71.702576%, 91.917419%)" offset="0.9375"/><stop stop-opacity="1" stop-color="rgb(28.540039%, 72.058105%, 91.97998%)" offset="0.953125"/><stop stop-opacity="1" stop-color="rgb(28.785706%, 72.412109%, 92.042542%)" offset="0.96875"/><stop stop-opacity="1" stop-color="rgb(29.031372%, 72.766113%, 92.105103%)" offset="0.984375"/><stop stop-opacity="1" stop-color="rgb(29.275513%, 73.121643%, 92.167664%)" offset="1"/></linearGradient><clipPath id="f19c00f978"><path d="M 32.296875 16.992188 L 441.597656 16.992188 L 441.597656 160.171875 L 32.296875 160.171875 Z M 32.296875 16.992188 " clip-rule="nonzero"/></clipPath><clipPath id="8659d3961a"><path d="M 32.296875 75 L 436 75 L 436 160.171875 L 32.296875 160.171875 Z M 32.296875 75 " clip-rule="nonzero"/></clipPath><clipPath id="893f4ac384"><path d="M 422 134 L 441.597656 134 L 441.597656 141 L 422 141 Z M 422 134 " clip-rule="nonzero"/></clipPath><clipPath id="62fc456af2"><path d="M 227 16.992188 L 241 16.992188 L 241 31 L 227 31 Z M 227 16.992188 " clip-rule="nonzero"/></clipPath><clipPath id="1cca02cfe0"><path d="M 422 121 L 441.597656 121 L 441.597656 135 L 422 135 Z M 422 121 " clip-rule="nonzero"/></clipPath><clipPath id="79a3e51e56"><path d="M 240 16.992188 L 254 16.992188 L 254 24 L 240 24 Z M 240 16.992188 " clip-rule="nonzero"/></clipPath><clipPath id="64308f9d7a"><path d="M 512 251.507812 L 921 251.507812 L 921 324.222656 L 512 324.222656 Z M 512 251.507812 " clip-rule="nonzero"/></clipPath><clipPath id="a7392eba7b"><path d="M 512 280 L 914 280 L 914 324.222656 L 512 324.222656 Z M 512 280 " clip-rule="nonzero"/></clipPath><clipPath id="33b9531035"><path d="M 585 251.507812 L 600 251.507812 L 600 267 L 585 267 Z M 585 251.507812 " clip-rule="nonzero"/></clipPath><clipPath id="36943d02a9"><path d="M 599 251.507812 L 615 251.507812 L 615 259 L 599 259 Z M 599 251.507812 " clip-rule="nonzero"/></clipPath><clipPath id="522496a463"><path d="M 556.828125 32.1875 L 966.128906 32.1875 L 966.128906 175.367188 L 556.828125 175.367188 Z M 556.828125 32.1875 " clip-rule="nonzero"/></clipPath><clipPath id="b70ea89a71"><path d="M 556.828125 90 L 960 90 L 960 175.367188 L 556.828125 175.367188 Z M 556.828125 90 " clip-rule="nonzero"/></clipPath><clipPath id="05d1090b0b"><path d="M 946 149 L 966.128906 149 L 966.128906 156 L 946 156 Z M 946 149 " clip-rule="nonzero"/></clipPath><clipPath id="bff6a058df"><path d="M 751 32.1875 L 765 32.1875 L 765 46 L 751 46 Z M 751 32.1875 " clip-rule="nonzero"/></clipPath><clipPath id="bc40c80188"><path d="M 946 136 L 966.128906 136 L 966.128906 150 L 946 150 Z M 946 136 " clip-rule="nonzero"/></clipPath><clipPath id="1562a8b1b6"><path d="M 764 32.1875 L 778 32.1875 L 778 39 L 764 39 Z M 764 32.1875 " clip-rule="nonzero"/></clipPath><clipPath id="31229f63af"><path d="M 102.398438 175.175781 L 511.699219 175.175781 L 511.699219 247.890625 L 102.398438 247.890625 Z M 102.398438 175.175781 " clip-rule="nonzero"/></clipPath><clipPath id="d117499a89"><path d="M 102.398438 204 L 504 204 L 504 247.890625 L 102.398438 247.890625 Z M 102.398438 204 " clip-rule="nonzero"/></clipPath><clipPath id="88c6f2c141"><path d="M 175 175.175781 L 191 175.175781 L 191 190 L 175 190 Z M 175 175.175781 " clip-rule="nonzero"/></clipPath><clipPath id="c219810255"><path d="M 445 226 L 511.699219 226 L 511.699219 241 L 445 241 Z M 445 226 " clip-rule="nonzero"/></clipPath><clipPath id="f903e4636b"><path d="M 190 175.175781 L 205 175.175781 L 205 183 L 190 183 Z M 190 175.175781 " clip-rule="nonzero"/></clipPath></defs><g clip-path="url(#7fb2a6e375)"><path fill="#ffffff" d="M 0 0.140625 L 1024 0.140625 L 1024 575.859375 L 0 575.859375 Z M 0 0.140625 " fill-opacity="1" fill-rule="nonzero"/><path fill="url(#12c0a0ca92)" d="M 0 0.140625 L 0 575.859375 L 1024 575.859375 L 1024 0.140625 Z M 0 0.140625 " fill-rule="nonzero"/></g><g clip-path="url(#f19c00f978)"><path fill="#ff999a" d="M 435.027344 127.628906 L 435.027344 121.121094 L 428.535156 121.121094 L 428.535156 114.613281 L 415.546875 114.613281 L 415.546875 108.105469 L 383.074219 108.105469 L 383.074219 114.613281 L 370.082031 114.613281 L 370.082031 101.597656 L 363.589844 101.597656 L 363.589844 95.089844 L 357.09375 95.089844 L 357.09375 88.582031 L 350.601562 88.582031 L 350.601562 82.074219 L 318.128906 82.074219 L 318.128906 69.054688 L 311.632812 69.054688 L 311.632812 56.039062 L 305.140625 56.039062 L 305.140625 49.53125 L 298.644531 49.53125 L 298.644531 43.023438 L 292.148438 43.023438 L 292.148438 36.515625 L 266.171875 36.515625 L 266.171875 30.007812 L 259.675781 30.007812 L 259.675781 23.5 L 253.183594 23.5 L 253.183594 16.992188 L 227.207031 16.992188 L 227.207031 23.5 L 214.214844 23.5 L 214.214844 30.007812 L 181.742188 30.007812 L 181.742188 36.515625 L 175.25 36.515625 L 175.25 43.023438 L 168.753906 43.023438 L 168.753906 49.53125 L 162.261719 49.53125 L 162.261719 75.566406 L 155.765625 75.566406 L 155.765625 82.074219 L 149.269531 82.074219 L 149.269531 95.089844 L 142.777344 95.089844 L 142.777344 88.582031 L 123.292969 88.582031 L 123.292969 95.089844 L 116.796875 95.089844 L 116.796875 101.597656 L 110.304688 101.597656 L 110.304688 108.105469 L 103.808594 108.105469 L 103.808594 121.121094 L 90.820312 121.121094 L 90.820312 127.628906 L 77.832031 127.628906 L 77.832031 134.136719 L 71.335938 134.136719 L 71.335938 127.628906 L 51.855469 127.628906 L 51.855469 134.136719 L 38.863281 134.136719 L 38.863281 140.648438 L 32.371094 140.648438 L 32.371094 153.664062 L 38.863281 153.664062 L 38.863281 160.171875 L 428.535156 160.171875 L 428.535156 153.664062 L 435.027344 153.664062 L 435.027344 140.648438 L 441.523438 140.648438 L 441.523438 127.628906 Z M 435.027344 127.628906 " fill-opacity="1" fill-rule="nonzero"/></g><path fill="#5561d3" d="M 214.214844 49.53125 L 214.214844 30.007812 L 207.722656 30.007812 L 207.722656 43.023438 L 201.226562 43.023438 L 201.226562 62.546875 L 207.722656 62.546875 L 207.722656 49.53125 Z M 214.214844 49.53125 " fill-opacity="1" fill-rule="nonzero"/><path fill="#5561d3" d="M 214.214844 23.5 L 227.207031 23.5 L 227.207031 30.007812 L 214.214844 30.007812 Z M 214.214844 23.5 " fill-opacity="1" fill-rule="nonzero"/><path fill="#5561d3" d="M 207.722656 62.546875 L 214.214844 62.546875 L 214.214844 75.566406 L 207.722656 75.566406 Z M 207.722656 62.546875 " fill-opacity="1" fill-rule="nonzero"/><path fill="#5561d3" d="M 233.699219 88.582031 L 233.699219 82.074219 L 227.207031 82.074219 L 227.207031 75.566406 L 214.214844 75.566406 L 214.214844 82.074219 L 220.710938 82.074219 L 220.710938 88.582031 L 227.207031 88.582031 L 227.207031 95.089844 L 240.195312 95.089844 L 240.195312 88.582031 Z M 233.699219 88.582031 " fill-opacity="1" fill-rule="nonzero"/><path fill="#5561d3" d="M 259.675781 36.515625 L 272.667969 36.515625 L 272.667969 43.023438 L 259.675781 43.023438 Z M 259.675781 36.515625 " fill-opacity="1" fill-rule="nonzero"/><path fill="#5561d3" d="M 253.183594 43.023438 L 259.675781 43.023438 L 259.675781 49.53125 L 253.183594 49.53125 Z M 253.183594 43.023438 " fill-opacity="1" fill-rule="nonzero"/><path fill="#5561d3" d="M 246.6875 49.53125 L 253.183594 49.53125 L 253.183594 69.054688 L 246.6875 69.054688 Z M 246.6875 49.53125 " fill-opacity="1" fill-rule="nonzero"/><path fill="#5561d3" d="M 253.183594 69.054688 L 259.675781 69.054688 L 259.675781 82.074219 L 253.183594 82.074219 Z M 253.183594 69.054688 " fill-opacity="1" fill-rule="nonzero"/><path fill="#5561d3" d="M 259.675781 82.074219 L 266.171875 82.074219 L 266.171875 88.582031 L 259.675781 88.582031 Z M 259.675781 82.074219 " fill-opacity="1" fill-rule="nonzero"/><path fill="#5561d3" d="M 266.171875 88.582031 L 279.160156 88.582031 L 279.160156 95.089844 L 266.171875 95.089844 Z M 266.171875 88.582031 " fill-opacity="1" fill-rule="nonzero"/><path fill="#5561d3" d="M 279.160156 95.089844 L 292.148438 95.089844 L 292.148438 101.597656 L 279.160156 101.597656 Z M 279.160156 95.089844 " fill-opacity="1" fill-rule="nonzero"/><path fill="#5561d3" d="M 292.148438 88.582031 L 305.140625 88.582031 L 305.140625 95.089844 L 292.148438 95.089844 Z M 292.148438 88.582031 " fill-opacity="1" fill-rule="nonzero"/><g clip-path="url(#8659d3961a)"><path fill="#5561d3" d="M 422.039062 140.648438 L 422.039062 147.15625 L 409.050781 147.15625 L 409.050781 140.648438 L 396.0625 140.648438 L 396.0625 134.136719 L 383.074219 134.136719 L 383.074219 127.628906 L 376.578125 127.628906 L 376.578125 114.613281 L 363.589844 114.613281 L 363.589844 121.121094 L 337.613281 121.121094 L 337.613281 127.628906 L 305.140625 127.628906 L 305.140625 121.121094 L 285.65625 121.121094 L 285.65625 114.613281 L 266.171875 114.613281 L 266.171875 108.105469 L 259.675781 108.105469 L 259.675781 101.597656 L 266.171875 101.597656 L 266.171875 95.089844 L 240.195312 95.089844 L 240.195312 101.597656 L 246.6875 101.597656 L 246.6875 108.105469 L 253.183594 108.105469 L 253.183594 114.613281 L 240.195312 114.613281 L 240.195312 121.121094 L 194.734375 121.121094 L 194.734375 114.613281 L 181.742188 114.613281 L 181.742188 108.105469 L 168.753906 108.105469 L 168.753906 101.597656 L 155.765625 101.597656 L 155.765625 88.582031 L 162.261719 88.582031 L 162.261719 75.566406 L 155.765625 75.566406 L 155.765625 82.074219 L 149.269531 82.074219 L 149.269531 108.105469 L 155.765625 108.105469 L 155.765625 114.613281 L 162.261719 114.613281 L 162.261719 121.121094 L 149.269531 121.121094 L 149.269531 127.628906 L 142.777344 127.628906 L 142.777344 140.648438 L 129.789062 140.648438 L 129.789062 134.136719 L 123.292969 134.136719 L 123.292969 127.628906 L 116.796875 127.628906 L 116.796875 121.121094 L 110.304688 121.121094 L 110.304688 108.105469 L 103.808594 108.105469 L 103.808594 121.121094 L 97.316406 121.121094 L 97.316406 134.136719 L 90.820312 134.136719 L 90.820312 140.648438 L 84.328125 140.648438 L 84.328125 147.15625 L 45.359375 147.15625 L 45.359375 134.136719 L 38.863281 134.136719 L 38.863281 140.648438 L 32.371094 140.648438 L 32.371094 153.664062 L 38.863281 153.664062 L 38.863281 160.171875 L 428.535156 160.171875 L 428.535156 153.664062 L 435.027344 153.664062 L 435.027344 140.648438 Z M 422.039062 140.648438 " fill-opacity="1" fill-rule="nonzero"/></g><path fill="#8e68e6" d="M 51.855469 134.136719 L 45.359375 134.136719 L 45.359375 147.15625 L 84.328125 147.15625 L 84.328125 140.648438 L 51.855469 140.648438 Z M 51.855469 134.136719 " fill-opacity="1" fill-rule="nonzero"/><path fill="#8e68e6" d="M 90.820312 121.121094 L 97.316406 121.121094 L 97.316406 134.136719 L 90.820312 134.136719 Z M 90.820312 121.121094 " fill-opacity="1" fill-rule="nonzero"/><path fill="#8e68e6" d="M 116.796875 114.613281 L 116.796875 101.597656 L 110.304688 101.597656 L 110.304688 121.121094 L 116.796875 121.121094 L 116.796875 127.628906 L 123.292969 127.628906 L 123.292969 114.613281 Z M 116.796875 114.613281 " fill-opacity="1" fill-rule="nonzero"/><path fill="#8e68e6" d="M 123.292969 127.628906 L 123.292969 134.136719 L 129.789062 134.136719 L 129.789062 140.648438 L 142.777344 140.648438 L 142.777344 127.628906 Z M 123.292969 127.628906 " fill-opacity="1" fill-rule="nonzero"/><path fill="#8e68e6" d="M 175.25 101.597656 L 175.25 95.089844 L 168.753906 95.089844 L 168.753906 69.054688 L 162.261719 69.054688 L 162.261719 88.582031 L 155.765625 88.582031 L 155.765625 101.597656 L 168.753906 101.597656 L 168.753906 108.105469 L 181.742188 108.105469 L 181.742188 101.597656 Z M 175.25 101.597656 " fill-opacity="1" fill-rule="nonzero"/><path fill="#8e68e6" d="M 194.734375 108.105469 L 181.742188 108.105469 L 181.742188 121.121094 L 194.734375 121.121094 L 194.734375 127.628906 L 240.195312 127.628906 L 240.195312 114.613281 L 194.734375 114.613281 Z M 194.734375 108.105469 " fill-opacity="1" fill-rule="nonzero"/><path fill="#8e68e6" d="M 240.195312 108.105469 L 253.183594 108.105469 L 253.183594 114.613281 L 240.195312 114.613281 Z M 240.195312 108.105469 " fill-opacity="1" fill-rule="nonzero"/><path fill="#8e68e6" d="M 220.710938 134.136719 L 227.207031 134.136719 L 227.207031 140.648438 L 220.710938 140.648438 Z M 220.710938 134.136719 " fill-opacity="1" fill-rule="nonzero"/><path fill="#8e68e6" d="M 246.6875 121.121094 L 259.675781 121.121094 L 259.675781 134.136719 L 246.6875 134.136719 Z M 246.6875 121.121094 " fill-opacity="1" fill-rule="nonzero"/><path fill="#8e68e6" d="M 155.765625 127.628906 L 168.753906 127.628906 L 168.753906 140.648438 L 155.765625 140.648438 Z M 155.765625 127.628906 " fill-opacity="1" fill-rule="nonzero"/><path fill="#8e68e6" d="M 103.808594 127.628906 L 110.304688 127.628906 L 110.304688 134.136719 L 103.808594 134.136719 Z M 103.808594 127.628906 " fill-opacity="1" fill-rule="nonzero"/><path fill="#8e68e6" d="M 90.820312 140.648438 L 97.316406 140.648438 L 97.316406 147.15625 L 90.820312 147.15625 Z M 90.820312 140.648438 " fill-opacity="1" fill-rule="nonzero"/><path fill="#8e68e6" d="M 103.808594 140.648438 L 116.796875 140.648438 L 116.796875 153.664062 L 103.808594 153.664062 Z M 103.808594 140.648438 " fill-opacity="1" fill-rule="nonzero"/><path fill="#8e68e6" d="M 188.238281 127.628906 L 181.742188 127.628906 L 181.742188 140.648438 L 214.214844 140.648438 L 214.214844 134.136719 L 188.238281 134.136719 Z M 188.238281 127.628906 " fill-opacity="1" fill-rule="nonzero"/><path fill="#8e68e6" d="M 285.65625 127.628906 L 298.644531 127.628906 L 298.644531 134.136719 L 285.65625 134.136719 Z M 285.65625 127.628906 " fill-opacity="1" fill-rule="nonzero"/><path fill="#8e68e6" d="M 272.667969 108.105469 L 272.667969 95.089844 L 266.171875 95.089844 L 266.171875 101.597656 L 259.675781 101.597656 L 259.675781 108.105469 L 266.171875 108.105469 L 266.171875 114.613281 L 285.65625 114.613281 L 285.65625 108.105469 Z M 272.667969 108.105469 " fill-opacity="1" fill-rule="nonzero"/><path fill="#8e68e6" d="M 207.722656 49.53125 L 214.214844 49.53125 L 214.214844 62.546875 L 207.722656 62.546875 Z M 207.722656 49.53125 " fill-opacity="1" fill-rule="nonzero"/><path fill="#8e68e6" d="M 220.710938 69.054688 L 220.710938 62.546875 L 214.214844 62.546875 L 214.214844 75.566406 L 227.207031 75.566406 L 227.207031 69.054688 Z M 220.710938 69.054688 " fill-opacity="1" fill-rule="nonzero"/><path fill="#8e68e6" d="M 227.207031 75.566406 L 233.699219 75.566406 L 233.699219 82.074219 L 227.207031 82.074219 Z M 227.207031 75.566406 " fill-opacity="1" fill-rule="nonzero"/><path fill="#8e68e6" d="M 259.675781 88.582031 L 259.675781 82.074219 L 233.699219 82.074219 L 233.699219 88.582031 L 240.195312 88.582031 L 240.195312 95.089844 L 266.171875 95.089844 L 266.171875 88.582031 Z M 259.675781 88.582031 " fill-opacity="1" fill-rule="nonzero"/><path fill="#8e68e6" d="M 363.589844 114.613281 L 370.082031 114.613281 L 370.082031 101.597656 L 363.589844 101.597656 L 363.589844 108.105469 L 337.613281 108.105469 L 337.613281 114.613281 L 285.65625 114.613281 L 285.65625 121.121094 L 305.140625 121.121094 L 305.140625 127.628906 L 337.613281 127.628906 L 337.613281 121.121094 L 363.589844 121.121094 Z M 363.589844 114.613281 " fill-opacity="1" fill-rule="nonzero"/><path fill="#8e68e6" d="M 383.074219 121.121094 L 383.074219 114.613281 L 376.578125 114.613281 L 376.578125 127.628906 L 383.074219 127.628906 L 383.074219 134.136719 L 396.0625 134.136719 L 396.0625 121.121094 Z M 383.074219 121.121094 " fill-opacity="1" fill-rule="nonzero"/><path fill="#8e68e6" d="M 396.0625 134.136719 L 409.050781 134.136719 L 409.050781 140.648438 L 396.0625 140.648438 Z M 396.0625 134.136719 " fill-opacity="1" fill-rule="nonzero"/><path fill="#8e68e6" d="M 409.050781 140.648438 L 422.039062 140.648438 L 422.039062 147.15625 L 409.050781 147.15625 Z M 409.050781 140.648438 " fill-opacity="1" fill-rule="nonzero"/><g clip-path="url(#893f4ac384)"><path fill="#8e68e6" d="M 422.039062 134.136719 L 441.523438 134.136719 L 441.523438 140.648438 L 422.039062 140.648438 Z M 422.039062 134.136719 " fill-opacity="1" fill-rule="nonzero"/></g><path fill="#8e68e6" d="M 376.578125 134.136719 L 363.589844 134.136719 L 363.589844 140.648438 L 370.082031 140.648438 L 370.082031 147.15625 L 389.566406 147.15625 L 389.566406 140.648438 L 376.578125 140.648438 Z M 376.578125 134.136719 " fill-opacity="1" fill-rule="nonzero"/><path fill="#8e68e6" d="M 344.105469 127.628906 L 363.589844 127.628906 L 363.589844 134.136719 L 344.105469 134.136719 Z M 344.105469 127.628906 " fill-opacity="1" fill-rule="nonzero"/><path fill="#fb6ba2" d="M 188.238281 101.597656 L 188.238281 88.582031 L 181.742188 88.582031 L 181.742188 62.546875 L 168.753906 62.546875 L 168.753906 56.039062 L 175.25 56.039062 L 175.25 43.023438 L 168.753906 43.023438 L 168.753906 49.53125 L 162.261719 49.53125 L 162.261719 69.054688 L 168.753906 69.054688 L 168.753906 95.089844 L 175.25 95.089844 L 175.25 101.597656 L 181.742188 101.597656 L 181.742188 108.105469 L 194.734375 108.105469 L 194.734375 101.597656 Z M 188.238281 101.597656 " fill-opacity="1" fill-rule="nonzero"/><path fill="#fb6ba2" d="M 194.734375 108.105469 L 240.195312 108.105469 L 240.195312 114.613281 L 194.734375 114.613281 Z M 194.734375 108.105469 " fill-opacity="1" fill-rule="nonzero"/><path fill="#fb6ba2" d="M 188.238281 56.039062 L 188.238281 49.53125 L 181.742188 49.53125 L 181.742188 62.546875 L 188.238281 62.546875 Z M 188.238281 56.039062 " fill-opacity="1" fill-rule="nonzero"/><path fill="#fb6ba2" d="M 188.238281 43.023438 L 194.734375 43.023438 L 194.734375 49.53125 L 188.238281 49.53125 Z M 188.238281 43.023438 " fill-opacity="1" fill-rule="nonzero"/><path fill="#fb6ba2" d="M 240.195312 101.597656 L 246.6875 101.597656 L 246.6875 108.105469 L 240.195312 108.105469 Z M 240.195312 101.597656 " fill-opacity="1" fill-rule="nonzero"/><path fill="#fb6ba2" d="M 129.789062 114.613281 L 123.292969 114.613281 L 123.292969 127.628906 L 149.269531 127.628906 L 149.269531 121.121094 L 129.789062 121.121094 Z M 129.789062 114.613281 " fill-opacity="1" fill-rule="nonzero"/><path fill="#fb6ba2" d="M 58.347656 127.628906 L 51.855469 127.628906 L 51.855469 140.648438 L 71.335938 140.648438 L 71.335938 134.136719 L 58.347656 134.136719 Z M 58.347656 127.628906 " fill-opacity="1" fill-rule="nonzero"/><path fill="#fb6ba2" d="M 77.832031 134.136719 L 90.820312 134.136719 L 90.820312 140.648438 L 77.832031 140.648438 Z M 77.832031 134.136719 " fill-opacity="1" fill-rule="nonzero"/><g clip-path="url(#62fc456af2)"><path fill="#fb6ba2" d="M 233.699219 23.5 L 240.195312 23.5 L 240.195312 16.992188 L 227.207031 16.992188 L 227.207031 30.007812 L 233.699219 30.007812 Z M 233.699219 23.5 " fill-opacity="1" fill-rule="nonzero"/></g><path fill="#fb6ba2" d="M 220.710938 56.039062 L 220.710938 36.515625 L 227.207031 36.515625 L 227.207031 30.007812 L 214.214844 30.007812 L 214.214844 62.546875 L 220.710938 62.546875 L 220.710938 69.054688 L 227.207031 69.054688 L 227.207031 56.039062 Z M 220.710938 56.039062 " fill-opacity="1" fill-rule="nonzero"/><path fill="#fb6ba2" d="M 227.207031 69.054688 L 233.699219 69.054688 L 233.699219 75.566406 L 227.207031 75.566406 Z M 227.207031 69.054688 " fill-opacity="1" fill-rule="nonzero"/><path fill="#fb6ba2" d="M 233.699219 75.566406 L 253.183594 75.566406 L 253.183594 82.074219 L 233.699219 82.074219 Z M 233.699219 75.566406 " fill-opacity="1" fill-rule="nonzero"/><path fill="#fb6ba2" d="M 227.207031 43.023438 L 233.699219 43.023438 L 233.699219 49.53125 L 227.207031 49.53125 Z M 227.207031 43.023438 " fill-opacity="1" fill-rule="nonzero"/><path fill="#fb6ba2" d="M 129.789062 101.597656 L 129.789062 95.089844 L 136.28125 95.089844 L 136.28125 88.582031 L 123.292969 88.582031 L 123.292969 95.089844 L 116.796875 95.089844 L 116.796875 114.613281 L 123.292969 114.613281 L 123.292969 101.597656 Z M 129.789062 101.597656 " fill-opacity="1" fill-rule="nonzero"/><path fill="#fb6ba2" d="M 155.765625 108.105469 L 149.269531 108.105469 L 149.269531 121.121094 L 162.261719 121.121094 L 162.261719 114.613281 L 155.765625 114.613281 Z M 155.765625 108.105469 " fill-opacity="1" fill-rule="nonzero"/><path fill="#fb6ba2" d="M 142.777344 95.089844 L 149.269531 95.089844 L 149.269531 108.105469 L 142.777344 108.105469 Z M 142.777344 95.089844 " fill-opacity="1" fill-rule="nonzero"/><path fill="#fb6ba2" d="M 253.183594 49.53125 L 259.675781 49.53125 L 259.675781 69.054688 L 253.183594 69.054688 Z M 253.183594 49.53125 " fill-opacity="1" fill-rule="nonzero"/><path fill="#fb6ba2" d="M 259.675781 69.054688 L 266.171875 69.054688 L 266.171875 82.074219 L 259.675781 82.074219 Z M 259.675781 69.054688 " fill-opacity="1" fill-rule="nonzero"/><path fill="#fb6ba2" d="M 266.171875 82.074219 L 279.160156 82.074219 L 279.160156 88.582031 L 266.171875 88.582031 Z M 266.171875 82.074219 " fill-opacity="1" fill-rule="nonzero"/><path fill="#fb6ba2" d="M 279.160156 88.582031 L 292.148438 88.582031 L 292.148438 95.089844 L 279.160156 95.089844 Z M 279.160156 88.582031 " fill-opacity="1" fill-rule="nonzero"/><path fill="#fb6ba2" d="M 350.601562 101.597656 L 324.621094 101.597656 L 324.621094 108.105469 L 292.148438 108.105469 L 292.148438 101.597656 L 279.160156 101.597656 L 279.160156 95.089844 L 272.667969 95.089844 L 272.667969 108.105469 L 285.65625 108.105469 L 285.65625 114.613281 L 337.613281 114.613281 L 337.613281 108.105469 L 363.589844 108.105469 L 363.589844 95.089844 L 350.601562 95.089844 Z M 350.601562 101.597656 " fill-opacity="1" fill-rule="nonzero"/><path fill="#fb6ba2" d="M 292.148438 82.074219 L 305.140625 82.074219 L 305.140625 88.582031 L 292.148438 88.582031 Z M 292.148438 82.074219 " fill-opacity="1" fill-rule="nonzero"/><path fill="#fb6ba2" d="M 305.140625 75.566406 L 311.632812 75.566406 L 311.632812 82.074219 L 305.140625 82.074219 Z M 305.140625 75.566406 " fill-opacity="1" fill-rule="nonzero"/><path fill="#fb6ba2" d="M 389.566406 114.613281 L 389.566406 108.105469 L 383.074219 108.105469 L 383.074219 121.121094 L 396.0625 121.121094 L 396.0625 114.613281 Z M 389.566406 114.613281 " fill-opacity="1" fill-rule="nonzero"/><path fill="#fb6ba2" d="M 402.554688 127.628906 L 402.554688 121.121094 L 396.0625 121.121094 L 396.0625 134.136719 L 409.050781 134.136719 L 409.050781 127.628906 Z M 402.554688 127.628906 " fill-opacity="1" fill-rule="nonzero"/><path fill="#fb6ba2" d="M 409.050781 134.136719 L 422.039062 134.136719 L 422.039062 140.648438 L 409.050781 140.648438 Z M 409.050781 134.136719 " fill-opacity="1" fill-rule="nonzero"/><g clip-path="url(#1cca02cfe0)"><path fill="#fb6ba2" d="M 435.027344 127.628906 L 435.027344 121.121094 L 428.535156 121.121094 L 428.535156 127.628906 L 422.039062 127.628906 L 422.039062 134.136719 L 441.523438 134.136719 L 441.523438 127.628906 Z M 435.027344 127.628906 " fill-opacity="1" fill-rule="nonzero"/></g><path fill="#fb6ba2" d="M 214.214844 82.074219 L 220.710938 82.074219 L 220.710938 88.582031 L 214.214844 88.582031 Z M 214.214844 82.074219 " fill-opacity="1" fill-rule="nonzero"/><path fill="#fb6ba2" d="M 220.710938 88.582031 L 227.207031 88.582031 L 227.207031 95.089844 L 220.710938 95.089844 Z M 220.710938 88.582031 " fill-opacity="1" fill-rule="nonzero"/><path fill="#fb6ba2" d="M 227.207031 95.089844 L 240.195312 95.089844 L 240.195312 101.597656 L 227.207031 101.597656 Z M 227.207031 95.089844 " fill-opacity="1" fill-rule="nonzero"/><path fill="#ffe14d" d="M 240.195312 30.007812 L 253.183594 30.007812 L 253.183594 36.515625 L 240.195312 36.515625 Z M 240.195312 30.007812 " fill-opacity="1" fill-rule="nonzero"/><path fill="#ffe14d" d="M 253.183594 23.5 L 259.675781 23.5 L 259.675781 30.007812 L 253.183594 30.007812 Z M 253.183594 23.5 " fill-opacity="1" fill-rule="nonzero"/><path fill="#ffe14d" d="M 259.675781 30.007812 L 266.171875 30.007812 L 266.171875 36.515625 L 259.675781 36.515625 Z M 259.675781 30.007812 " fill-opacity="1" fill-rule="nonzero"/><path fill="#ffe14d" d="M 279.160156 36.515625 L 292.148438 36.515625 L 292.148438 43.023438 L 279.160156 43.023438 Z M 279.160156 36.515625 " fill-opacity="1" fill-rule="nonzero"/><path fill="#ffe14d" d="M 272.667969 49.53125 L 285.65625 49.53125 L 285.65625 56.039062 L 272.667969 56.039062 Z M 272.667969 49.53125 " fill-opacity="1" fill-rule="nonzero"/><path fill="#ffe14d" d="M 285.65625 62.546875 L 292.148438 62.546875 L 292.148438 69.054688 L 285.65625 69.054688 Z M 285.65625 62.546875 " fill-opacity="1" fill-rule="nonzero"/><path fill="#ffe14d" d="M 188.238281 30.007812 L 207.722656 30.007812 L 207.722656 36.515625 L 188.238281 36.515625 Z M 188.238281 30.007812 " fill-opacity="1" fill-rule="nonzero"/><g clip-path="url(#79a3e51e56)"><path fill="#ffe14d" d="M 240.195312 16.992188 L 253.183594 16.992188 L 253.183594 23.5 L 240.195312 23.5 Z M 240.195312 16.992188 " fill-opacity="1" fill-rule="nonzero"/></g><path fill="#ffe14d" d="M 292.148438 43.023438 L 298.644531 43.023438 L 298.644531 49.53125 L 292.148438 49.53125 Z M 292.148438 43.023438 " fill-opacity="1" fill-rule="nonzero"/><path fill="#ffe14d" d="M 305.140625 56.039062 L 311.632812 56.039062 L 311.632812 62.546875 L 305.140625 62.546875 Z M 305.140625 56.039062 " fill-opacity="1" fill-rule="nonzero"/><path fill="#ffe14d" d="M 402.554688 108.105469 L 415.546875 108.105469 L 415.546875 114.613281 L 402.554688 114.613281 Z M 402.554688 108.105469 " fill-opacity="1" fill-rule="nonzero"/><path fill="#ffe14d" d="M 415.546875 114.613281 L 428.535156 114.613281 L 428.535156 121.121094 L 415.546875 121.121094 Z M 415.546875 114.613281 " fill-opacity="1" fill-rule="nonzero"/><path fill="#ffe14d" d="M 311.632812 69.054688 L 318.128906 69.054688 L 318.128906 82.074219 L 311.632812 82.074219 Z M 311.632812 69.054688 " fill-opacity="1" fill-rule="nonzero"/><path fill="#ffe14d" d="M 318.128906 82.074219 L 337.613281 82.074219 L 337.613281 88.582031 L 318.128906 88.582031 Z M 318.128906 82.074219 " fill-opacity="1" fill-rule="nonzero"/><path fill="#ffe14d" d="M 344.105469 88.582031 L 350.601562 88.582031 L 350.601562 95.089844 L 344.105469 95.089844 Z M 344.105469 88.582031 " fill-opacity="1" fill-rule="nonzero"/><path fill="#ffe14d" d="M 311.632812 88.582031 L 318.128906 88.582031 L 318.128906 95.089844 L 311.632812 95.089844 Z M 311.632812 88.582031 " fill-opacity="1" fill-rule="nonzero"/><path fill="#ffe14d" d="M 266.171875 56.039062 L 272.667969 56.039062 L 272.667969 62.546875 L 266.171875 62.546875 Z M 266.171875 56.039062 " fill-opacity="1" fill-rule="nonzero"/><g clip-path="url(#64308f9d7a)"><path fill="#ff999a" d="M 906.242188 309.679688 L 906.242188 302.410156 L 884.367188 302.410156 L 884.367188 287.867188 L 862.492188 287.867188 L 862.492188 280.59375 L 840.613281 280.59375 L 840.613281 287.867188 L 818.738281 287.867188 L 818.738281 295.136719 L 811.445312 295.136719 L 811.445312 280.59375 L 796.863281 280.59375 L 796.863281 273.324219 L 760.402344 273.324219 L 760.402344 280.59375 L 745.816406 280.59375 L 745.816406 287.867188 L 738.527344 287.867188 L 738.527344 295.136719 L 731.234375 295.136719 L 731.234375 302.410156 L 723.941406 302.410156 L 723.941406 309.679688 L 709.359375 309.679688 L 709.359375 302.410156 L 702.066406 302.410156 L 702.066406 295.136719 L 687.480469 295.136719 L 687.480469 287.867188 L 665.605469 287.867188 L 665.605469 295.136719 L 651.023438 295.136719 L 651.023438 280.59375 L 643.730469 280.59375 L 643.730469 273.324219 L 636.4375 273.324219 L 636.4375 266.050781 L 629.144531 266.050781 L 629.144531 258.78125 L 614.5625 258.78125 L 614.5625 251.507812 L 585.394531 251.507812 L 585.394531 258.78125 L 578.101562 258.78125 L 578.101562 266.050781 L 570.808594 266.050781 L 570.808594 273.324219 L 563.519531 273.324219 L 563.519531 280.59375 L 556.226562 280.59375 L 556.226562 273.324219 L 541.640625 273.324219 L 541.640625 280.59375 L 534.351562 280.59375 L 534.351562 287.867188 L 527.058594 287.867188 L 527.058594 295.136719 L 519.765625 295.136719 L 519.765625 302.410156 L 512.472656 302.410156 L 512.472656 316.953125 L 519.765625 316.953125 L 519.765625 324.222656 L 913.535156 324.222656 L 913.535156 316.953125 L 920.828125 316.953125 L 920.828125 309.679688 Z M 906.242188 309.679688 " fill-opacity="1" fill-rule="nonzero"/></g><g clip-path="url(#a7392eba7b)"><path fill="#5561d3" d="M 855.199219 316.953125 L 855.199219 309.679688 L 847.90625 309.679688 L 847.90625 316.953125 L 840.613281 316.953125 L 840.613281 309.679688 L 826.03125 309.679688 L 826.03125 302.410156 L 818.738281 302.410156 L 818.738281 295.136719 L 811.445312 295.136719 L 811.445312 302.410156 L 804.152344 302.410156 L 804.152344 309.679688 L 789.570312 309.679688 L 789.570312 316.953125 L 753.109375 316.953125 L 753.109375 309.679688 L 745.816406 309.679688 L 745.816406 295.136719 L 753.109375 295.136719 L 753.109375 287.867188 L 760.402344 287.867188 L 760.402344 280.59375 L 745.816406 280.59375 L 745.816406 287.867188 L 738.527344 287.867188 L 738.527344 295.136719 L 731.234375 295.136719 L 731.234375 302.410156 L 723.941406 302.410156 L 723.941406 309.679688 L 709.359375 309.679688 L 709.359375 316.953125 L 687.480469 316.953125 L 687.480469 309.679688 L 680.191406 309.679688 L 680.191406 316.953125 L 672.898438 316.953125 L 672.898438 309.679688 L 665.605469 309.679688 L 665.605469 295.136719 L 651.023438 295.136719 L 651.023438 302.410156 L 658.3125 302.410156 L 658.3125 309.679688 L 651.023438 309.679688 L 651.023438 316.953125 L 636.4375 316.953125 L 636.4375 309.679688 L 629.144531 309.679688 L 629.144531 316.953125 L 621.855469 316.953125 L 621.855469 309.679688 L 592.6875 309.679688 L 592.6875 316.953125 L 556.226562 316.953125 L 556.226562 309.679688 L 534.351562 309.679688 L 534.351562 302.410156 L 527.058594 302.410156 L 527.058594 295.136719 L 519.765625 295.136719 L 519.765625 302.410156 L 512.472656 302.410156 L 512.472656 316.953125 L 519.765625 316.953125 L 519.765625 324.222656 L 913.535156 324.222656 L 913.535156 316.953125 Z M 855.199219 316.953125 " fill-opacity="1" fill-rule="nonzero"/></g><path fill="#5561d3" d="M 563.519531 273.324219 L 570.808594 273.324219 L 570.808594 295.136719 L 563.519531 295.136719 Z M 563.519531 273.324219 " fill-opacity="1" fill-rule="nonzero"/><path fill="#5561d3" d="M 570.808594 295.136719 L 578.101562 295.136719 L 578.101562 302.410156 L 570.808594 302.410156 Z M 570.808594 295.136719 " fill-opacity="1" fill-rule="nonzero"/><path fill="#5561d3" d="M 578.101562 302.410156 L 592.6875 302.410156 L 592.6875 309.679688 L 578.101562 309.679688 Z M 578.101562 302.410156 " fill-opacity="1" fill-rule="nonzero"/><path fill="#5561d3" d="M 527.058594 287.867188 L 534.351562 287.867188 L 534.351562 295.136719 L 527.058594 295.136719 Z M 527.058594 287.867188 " fill-opacity="1" fill-rule="nonzero"/><path fill="#5561d3" d="M 570.808594 266.050781 L 578.101562 266.050781 L 578.101562 273.324219 L 570.808594 273.324219 Z M 570.808594 266.050781 " fill-opacity="1" fill-rule="nonzero"/><path fill="#5561d3" d="M 578.101562 258.78125 L 585.394531 258.78125 L 585.394531 266.050781 L 578.101562 266.050781 Z M 578.101562 258.78125 " fill-opacity="1" fill-rule="nonzero"/><path fill="#5561d3" d="M 818.738281 287.867188 L 840.613281 287.867188 L 840.613281 295.136719 L 818.738281 295.136719 Z M 818.738281 287.867188 " fill-opacity="1" fill-rule="nonzero"/><path fill="#8e68e6" d="M 527.058594 295.136719 L 534.351562 295.136719 L 534.351562 302.410156 L 527.058594 302.410156 Z M 527.058594 295.136719 " fill-opacity="1" fill-rule="nonzero"/><path fill="#8e68e6" d="M 534.351562 302.410156 L 556.226562 302.410156 L 556.226562 309.679688 L 534.351562 309.679688 Z M 534.351562 302.410156 " fill-opacity="1" fill-rule="nonzero"/><path fill="#8e68e6" d="M 534.351562 280.59375 L 541.640625 280.59375 L 541.640625 295.136719 L 534.351562 295.136719 Z M 534.351562 280.59375 " fill-opacity="1" fill-rule="nonzero"/><path fill="#8e68e6" d="M 578.101562 302.410156 L 570.808594 302.410156 L 570.808594 309.679688 L 556.226562 309.679688 L 556.226562 316.953125 L 592.6875 316.953125 L 592.6875 309.679688 L 578.101562 309.679688 Z M 578.101562 302.410156 " fill-opacity="1" fill-rule="nonzero"/><path fill="#8e68e6" d="M 592.6875 302.410156 L 592.6875 295.136719 L 585.394531 295.136719 L 585.394531 266.050781 L 578.101562 266.050781 L 578.101562 273.324219 L 570.808594 273.324219 L 570.808594 295.136719 L 578.101562 295.136719 L 578.101562 302.410156 Z M 592.6875 302.410156 " fill-opacity="1" fill-rule="nonzero"/><path fill="#8e68e6" d="M 592.6875 302.410156 L 621.855469 302.410156 L 621.855469 309.679688 L 592.6875 309.679688 Z M 592.6875 302.410156 " fill-opacity="1" fill-rule="nonzero"/><path fill="#8e68e6" d="M 621.855469 309.679688 L 629.144531 309.679688 L 629.144531 316.953125 L 621.855469 316.953125 Z M 621.855469 309.679688 " fill-opacity="1" fill-rule="nonzero"/><path fill="#8e68e6" d="M 643.730469 309.679688 L 636.4375 309.679688 L 636.4375 316.953125 L 651.023438 316.953125 L 651.023438 309.679688 L 658.3125 309.679688 L 658.3125 302.410156 L 643.730469 302.410156 Z M 643.730469 309.679688 " fill-opacity="1" fill-rule="nonzero"/><g clip-path="url(#33b9531035)"><path fill="#8e68e6" d="M 592.6875 258.78125 L 599.976562 258.78125 L 599.976562 251.507812 L 585.394531 251.507812 L 585.394531 266.050781 L 592.6875 266.050781 Z M 592.6875 258.78125 " fill-opacity="1" fill-rule="nonzero"/></g><path fill="#8e68e6" d="M 541.640625 273.324219 L 548.933594 273.324219 L 548.933594 280.59375 L 541.640625 280.59375 Z M 541.640625 273.324219 " fill-opacity="1" fill-rule="nonzero"/><path fill="#8e68e6" d="M 745.816406 295.136719 L 753.109375 295.136719 L 753.109375 309.679688 L 745.816406 309.679688 Z M 745.816406 295.136719 " fill-opacity="1" fill-rule="nonzero"/><path fill="#8e68e6" d="M 753.109375 309.679688 L 789.570312 309.679688 L 789.570312 316.953125 L 753.109375 316.953125 Z M 753.109375 309.679688 " fill-opacity="1" fill-rule="nonzero"/><path fill="#8e68e6" d="M 789.570312 302.410156 L 804.152344 302.410156 L 804.152344 309.679688 L 789.570312 309.679688 Z M 789.570312 302.410156 " fill-opacity="1" fill-rule="nonzero"/><path fill="#8e68e6" d="M 767.695312 280.59375 L 774.984375 280.59375 L 774.984375 273.324219 L 760.402344 273.324219 L 760.402344 287.867188 L 767.695312 287.867188 Z M 767.695312 280.59375 " fill-opacity="1" fill-rule="nonzero"/><path fill="#8e68e6" d="M 753.109375 287.867188 L 760.402344 287.867188 L 760.402344 295.136719 L 753.109375 295.136719 Z M 753.109375 287.867188 " fill-opacity="1" fill-rule="nonzero"/><path fill="#8e68e6" d="M 818.738281 302.410156 L 826.03125 302.410156 L 826.03125 309.679688 L 840.613281 309.679688 L 840.613281 316.953125 L 847.90625 316.953125 L 847.90625 302.410156 L 840.613281 302.410156 L 840.613281 295.136719 L 818.738281 295.136719 Z M 818.738281 302.410156 " fill-opacity="1" fill-rule="nonzero"/><path fill="#8e68e6" d="M 906.242188 309.679688 L 906.242188 302.410156 L 898.949219 302.410156 L 898.949219 309.679688 L 855.199219 309.679688 L 855.199219 316.953125 L 920.828125 316.953125 L 920.828125 309.679688 Z M 906.242188 309.679688 " fill-opacity="1" fill-rule="nonzero"/><path fill="#8e68e6" d="M 840.613281 280.59375 L 847.90625 280.59375 L 847.90625 295.136719 L 840.613281 295.136719 Z M 840.613281 280.59375 " fill-opacity="1" fill-rule="nonzero"/><path fill="#fb6ba2" d="M 847.90625 280.59375 L 855.199219 280.59375 L 855.199219 287.867188 L 847.90625 287.867188 Z M 847.90625 280.59375 " fill-opacity="1" fill-rule="nonzero"/><path fill="#fb6ba2" d="M 753.109375 295.136719 L 760.402344 295.136719 L 760.402344 309.679688 L 753.109375 309.679688 Z M 753.109375 295.136719 " fill-opacity="1" fill-rule="nonzero"/><path fill="#fb6ba2" d="M 789.570312 295.136719 L 811.445312 295.136719 L 811.445312 302.410156 L 789.570312 302.410156 Z M 789.570312 295.136719 " fill-opacity="1" fill-rule="nonzero"/><path fill="#fb6ba2" d="M 621.855469 302.410156 L 643.730469 302.410156 L 643.730469 309.679688 L 621.855469 309.679688 Z M 621.855469 302.410156 " fill-opacity="1" fill-rule="nonzero"/><path fill="#fb6ba2" d="M 643.730469 280.59375 L 651.023438 280.59375 L 651.023438 302.410156 L 643.730469 302.410156 Z M 643.730469 280.59375 " fill-opacity="1" fill-rule="nonzero"/><path fill="#fb6ba2" d="M 592.6875 295.136719 L 621.855469 295.136719 L 621.855469 302.410156 L 592.6875 302.410156 Z M 592.6875 295.136719 " fill-opacity="1" fill-rule="nonzero"/><path fill="#fb6ba2" d="M 585.394531 280.59375 L 592.6875 280.59375 L 592.6875 295.136719 L 585.394531 295.136719 Z M 585.394531 280.59375 " fill-opacity="1" fill-rule="nonzero"/><path fill="#fb6ba2" d="M 665.605469 295.136719 L 672.898438 295.136719 L 672.898438 309.679688 L 665.605469 309.679688 Z M 665.605469 295.136719 " fill-opacity="1" fill-rule="nonzero"/><path fill="#fb6ba2" d="M 672.898438 309.679688 L 680.191406 309.679688 L 680.191406 316.953125 L 672.898438 316.953125 Z M 672.898438 309.679688 " fill-opacity="1" fill-rule="nonzero"/><path fill="#fb6ba2" d="M 687.480469 309.679688 L 709.359375 309.679688 L 709.359375 316.953125 L 687.480469 316.953125 Z M 687.480469 309.679688 " fill-opacity="1" fill-rule="nonzero"/><path fill="#fb6ba2" d="M 847.90625 302.410156 L 898.949219 302.410156 L 898.949219 309.679688 L 847.90625 309.679688 Z M 847.90625 302.410156 " fill-opacity="1" fill-rule="nonzero"/><path fill="#fb6ba2" d="M 840.613281 295.136719 L 847.90625 295.136719 L 847.90625 302.410156 L 840.613281 302.410156 Z M 840.613281 295.136719 " fill-opacity="1" fill-rule="nonzero"/><path fill="#fb6ba2" d="M 592.6875 258.78125 L 599.976562 258.78125 L 599.976562 266.050781 L 592.6875 266.050781 Z M 592.6875 258.78125 " fill-opacity="1" fill-rule="nonzero"/><g clip-path="url(#36943d02a9)"><path fill="#fb6ba2" d="M 599.976562 251.507812 L 614.5625 251.507812 L 614.5625 258.78125 L 599.976562 258.78125 Z M 599.976562 251.507812 " fill-opacity="1" fill-rule="nonzero"/></g><path fill="#fb6ba2" d="M 548.933594 273.324219 L 556.226562 273.324219 L 556.226562 280.59375 L 548.933594 280.59375 Z M 548.933594 273.324219 " fill-opacity="1" fill-rule="nonzero"/><path fill="#fb6ba2" d="M 599.976562 273.324219 L 607.269531 273.324219 L 607.269531 287.867188 L 599.976562 287.867188 Z M 599.976562 273.324219 " fill-opacity="1" fill-rule="nonzero"/><path fill="#fb6ba2" d="M 614.5625 280.59375 L 629.144531 280.59375 L 629.144531 287.867188 L 614.5625 287.867188 Z M 614.5625 280.59375 " fill-opacity="1" fill-rule="nonzero"/><path fill="#fb6ba2" d="M 782.277344 280.59375 L 796.863281 280.59375 L 796.863281 287.867188 L 782.277344 287.867188 Z M 782.277344 280.59375 " fill-opacity="1" fill-rule="nonzero"/><path fill="#fb6ba2" d="M 774.984375 302.410156 L 789.570312 302.410156 L 789.570312 309.679688 L 774.984375 309.679688 Z M 774.984375 302.410156 " fill-opacity="1" fill-rule="nonzero"/><path fill="#fb6ba2" d="M 556.226562 302.410156 L 570.808594 302.410156 L 570.808594 309.679688 L 556.226562 309.679688 Z M 556.226562 302.410156 " fill-opacity="1" fill-rule="nonzero"/><path fill="#ffe14d" d="M 774.984375 273.324219 L 796.863281 273.324219 L 796.863281 280.59375 L 774.984375 280.59375 Z M 774.984375 273.324219 " fill-opacity="1" fill-rule="nonzero"/><path fill="#ffe14d" d="M 804.152344 280.59375 L 811.445312 280.59375 L 811.445312 287.867188 L 804.152344 287.867188 Z M 804.152344 280.59375 " fill-opacity="1" fill-rule="nonzero"/><path fill="#ffe14d" d="M 855.199219 280.59375 L 862.492188 280.59375 L 862.492188 287.867188 L 855.199219 287.867188 Z M 855.199219 280.59375 " fill-opacity="1" fill-rule="nonzero"/><path fill="#ffe14d" d="M 869.78125 287.867188 L 884.367188 287.867188 L 884.367188 295.136719 L 869.78125 295.136719 Z M 869.78125 287.867188 " fill-opacity="1" fill-rule="nonzero"/><path fill="#ffe14d" d="M 672.898438 287.867188 L 687.480469 287.867188 L 687.480469 295.136719 L 672.898438 295.136719 Z M 672.898438 287.867188 " fill-opacity="1" fill-rule="nonzero"/><path fill="#ffe14d" d="M 694.773438 295.136719 L 702.066406 295.136719 L 702.066406 302.410156 L 694.773438 302.410156 Z M 694.773438 295.136719 " fill-opacity="1" fill-rule="nonzero"/><path fill="#ffe14d" d="M 621.855469 258.78125 L 629.144531 258.78125 L 629.144531 266.050781 L 621.855469 266.050781 Z M 621.855469 258.78125 " fill-opacity="1" fill-rule="nonzero"/><path fill="#ffe14d" d="M 629.144531 266.050781 L 636.4375 266.050781 L 636.4375 273.324219 L 629.144531 273.324219 Z M 629.144531 266.050781 " fill-opacity="1" fill-rule="nonzero"/><path fill="#ffe14d" d="M 636.4375 273.324219 L 643.730469 273.324219 L 643.730469 280.59375 L 636.4375 280.59375 Z M 636.4375 273.324219 " fill-opacity="1" fill-rule="nonzero"/><path fill="#ffe14d" d="M 556.226562 280.59375 L 563.519531 280.59375 L 563.519531 287.867188 L 556.226562 287.867188 Z M 556.226562 280.59375 " fill-opacity="1" fill-rule="nonzero"/><g clip-path="url(#522496a463)"><path fill="#ff999a" d="M 959.558594 142.828125 L 959.558594 136.316406 L 953.066406 136.316406 L 953.066406 129.808594 L 940.078125 129.808594 L 940.078125 123.300781 L 907.605469 123.300781 L 907.605469 129.808594 L 894.617188 129.808594 L 894.617188 116.792969 L 888.121094 116.792969 L 888.121094 110.285156 L 881.625 110.285156 L 881.625 103.777344 L 875.132812 103.777344 L 875.132812 97.269531 L 842.660156 97.269531 L 842.660156 84.253906 L 836.164062 84.253906 L 836.164062 71.238281 L 829.671875 71.238281 L 829.671875 64.726562 L 823.175781 64.726562 L 823.175781 58.21875 L 816.679688 58.21875 L 816.679688 51.710938 L 790.703125 51.710938 L 790.703125 45.203125 L 784.210938 45.203125 L 784.210938 38.695312 L 777.714844 38.695312 L 777.714844 32.1875 L 751.738281 32.1875 L 751.738281 38.695312 L 738.746094 38.695312 L 738.746094 45.203125 L 706.273438 45.203125 L 706.273438 51.710938 L 699.78125 51.710938 L 699.78125 58.21875 L 693.285156 58.21875 L 693.285156 64.726562 L 686.792969 64.726562 L 686.792969 90.761719 L 680.296875 90.761719 L 680.296875 97.269531 L 673.800781 97.269531 L 673.800781 110.285156 L 667.308594 110.285156 L 667.308594 103.777344 L 647.824219 103.777344 L 647.824219 110.285156 L 641.332031 110.285156 L 641.332031 116.792969 L 634.835938 116.792969 L 634.835938 123.300781 L 628.339844 123.300781 L 628.339844 136.316406 L 615.351562 136.316406 L 615.351562 142.828125 L 602.363281 142.828125 L 602.363281 149.335938 L 595.867188 149.335938 L 595.867188 142.828125 L 576.386719 142.828125 L 576.386719 149.335938 L 563.394531 149.335938 L 563.394531 155.84375 L 556.902344 155.84375 L 556.902344 168.859375 L 563.394531 168.859375 L 563.394531 175.367188 L 953.066406 175.367188 L 953.066406 168.859375 L 959.558594 168.859375 L 959.558594 155.84375 L 966.054688 155.84375 L 966.054688 142.828125 Z M 959.558594 142.828125 " fill-opacity="1" fill-rule="nonzero"/></g><path fill="#5561d3" d="M 738.746094 64.726562 L 738.746094 45.203125 L 732.253906 45.203125 L 732.253906 58.21875 L 725.757812 58.21875 L 725.757812 77.746094 L 732.253906 77.746094 L 732.253906 64.726562 Z M 738.746094 64.726562 " fill-opacity="1" fill-rule="nonzero"/><path fill="#5561d3" d="M 738.746094 38.695312 L 751.738281 38.695312 L 751.738281 45.203125 L 738.746094 45.203125 Z M 738.746094 38.695312 " fill-opacity="1" fill-rule="nonzero"/><path fill="#5561d3" d="M 732.253906 77.746094 L 738.746094 77.746094 L 738.746094 90.761719 L 732.253906 90.761719 Z M 732.253906 77.746094 " fill-opacity="1" fill-rule="nonzero"/><path fill="#5561d3" d="M 758.230469 103.777344 L 758.230469 97.269531 L 751.738281 97.269531 L 751.738281 90.761719 L 738.746094 90.761719 L 738.746094 97.269531 L 745.242188 97.269531 L 745.242188 103.777344 L 751.738281 103.777344 L 751.738281 110.285156 L 764.726562 110.285156 L 764.726562 103.777344 Z M 758.230469 103.777344 " fill-opacity="1" fill-rule="nonzero"/><path fill="#5561d3" d="M 784.210938 51.710938 L 797.199219 51.710938 L 797.199219 58.21875 L 784.210938 58.21875 Z M 784.210938 51.710938 " fill-opacity="1" fill-rule="nonzero"/><path fill="#5561d3" d="M 777.714844 58.21875 L 784.210938 58.21875 L 784.210938 64.726562 L 777.714844 64.726562 Z M 777.714844 58.21875 " fill-opacity="1" fill-rule="nonzero"/><path fill="#5561d3" d="M 771.21875 64.726562 L 777.714844 64.726562 L 777.714844 84.253906 L 771.21875 84.253906 Z M 771.21875 64.726562 " fill-opacity="1" fill-rule="nonzero"/><path fill="#5561d3" d="M 777.714844 84.253906 L 784.210938 84.253906 L 784.210938 97.269531 L 777.714844 97.269531 Z M 777.714844 84.253906 " fill-opacity="1" fill-rule="nonzero"/><path fill="#5561d3" d="M 784.210938 97.269531 L 790.703125 97.269531 L 790.703125 103.777344 L 784.210938 103.777344 Z M 784.210938 97.269531 " fill-opacity="1" fill-rule="nonzero"/><path fill="#5561d3" d="M 790.703125 103.777344 L 803.691406 103.777344 L 803.691406 110.285156 L 790.703125 110.285156 Z M 790.703125 103.777344 " fill-opacity="1" fill-rule="nonzero"/><path fill="#5561d3" d="M 803.691406 110.285156 L 816.679688 110.285156 L 816.679688 116.792969 L 803.691406 116.792969 Z M 803.691406 110.285156 " fill-opacity="1" fill-rule="nonzero"/><path fill="#5561d3" d="M 816.679688 103.777344 L 829.671875 103.777344 L 829.671875 110.285156 L 816.679688 110.285156 Z M 816.679688 103.777344 " fill-opacity="1" fill-rule="nonzero"/><g clip-path="url(#b70ea89a71)"><path fill="#5561d3" d="M 946.570312 155.84375 L 946.570312 162.351562 L 933.582031 162.351562 L 933.582031 155.84375 L 920.59375 155.84375 L 920.59375 149.335938 L 907.605469 149.335938 L 907.605469 142.828125 L 901.109375 142.828125 L 901.109375 129.808594 L 888.121094 129.808594 L 888.121094 136.316406 L 862.144531 136.316406 L 862.144531 142.828125 L 829.671875 142.828125 L 829.671875 136.316406 L 810.1875 136.316406 L 810.1875 129.808594 L 790.703125 129.808594 L 790.703125 123.300781 L 784.210938 123.300781 L 784.210938 116.792969 L 790.703125 116.792969 L 790.703125 110.285156 L 764.726562 110.285156 L 764.726562 116.792969 L 771.21875 116.792969 L 771.21875 123.300781 L 777.714844 123.300781 L 777.714844 129.808594 L 764.726562 129.808594 L 764.726562 136.316406 L 719.265625 136.316406 L 719.265625 129.808594 L 706.273438 129.808594 L 706.273438 123.300781 L 693.285156 123.300781 L 693.285156 116.792969 L 680.296875 116.792969 L 680.296875 103.777344 L 686.792969 103.777344 L 686.792969 90.761719 L 680.296875 90.761719 L 680.296875 97.269531 L 673.800781 97.269531 L 673.800781 123.300781 L 680.296875 123.300781 L 680.296875 129.808594 L 686.792969 129.808594 L 686.792969 136.316406 L 673.800781 136.316406 L 673.800781 142.828125 L 667.308594 142.828125 L 667.308594 155.84375 L 654.320312 155.84375 L 654.320312 149.335938 L 647.824219 149.335938 L 647.824219 142.828125 L 641.332031 142.828125 L 641.332031 136.316406 L 634.835938 136.316406 L 634.835938 123.300781 L 628.339844 123.300781 L 628.339844 136.316406 L 621.847656 136.316406 L 621.847656 149.335938 L 615.351562 149.335938 L 615.351562 155.84375 L 608.859375 155.84375 L 608.859375 162.351562 L 569.890625 162.351562 L 569.890625 149.335938 L 563.394531 149.335938 L 563.394531 155.84375 L 556.902344 155.84375 L 556.902344 168.859375 L 563.394531 168.859375 L 563.394531 175.367188 L 953.066406 175.367188 L 953.066406 168.859375 L 959.558594 168.859375 L 959.558594 155.84375 Z M 946.570312 155.84375 " fill-opacity="1" fill-rule="nonzero"/></g><path fill="#8e68e6" d="M 576.386719 149.335938 L 569.890625 149.335938 L 569.890625 162.351562 L 608.859375 162.351562 L 608.859375 155.84375 L 576.386719 155.84375 Z M 576.386719 149.335938 " fill-opacity="1" fill-rule="nonzero"/><path fill="#8e68e6" d="M 615.351562 136.316406 L 621.847656 136.316406 L 621.847656 149.335938 L 615.351562 149.335938 Z M 615.351562 136.316406 " fill-opacity="1" fill-rule="nonzero"/><path fill="#8e68e6" d="M 641.332031 129.808594 L 641.332031 116.792969 L 634.835938 116.792969 L 634.835938 136.316406 L 641.332031 136.316406 L 641.332031 142.828125 L 647.824219 142.828125 L 647.824219 129.808594 Z M 641.332031 129.808594 " fill-opacity="1" fill-rule="nonzero"/><path fill="#8e68e6" d="M 647.824219 142.828125 L 647.824219 149.335938 L 654.320312 149.335938 L 654.320312 155.84375 L 667.308594 155.84375 L 667.308594 142.828125 Z M 647.824219 142.828125 " fill-opacity="1" fill-rule="nonzero"/><path fill="#8e68e6" d="M 699.78125 116.792969 L 699.78125 110.285156 L 693.285156 110.285156 L 693.285156 84.253906 L 686.792969 84.253906 L 686.792969 103.777344 L 680.296875 103.777344 L 680.296875 116.792969 L 693.285156 116.792969 L 693.285156 123.300781 L 706.273438 123.300781 L 706.273438 116.792969 Z M 699.78125 116.792969 " fill-opacity="1" fill-rule="nonzero"/><path fill="#8e68e6" d="M 719.265625 123.300781 L 706.273438 123.300781 L 706.273438 136.316406 L 719.265625 136.316406 L 719.265625 142.828125 L 764.726562 142.828125 L 764.726562 129.808594 L 719.265625 129.808594 Z M 719.265625 123.300781 " fill-opacity="1" fill-rule="nonzero"/><path fill="#8e68e6" d="M 764.726562 123.300781 L 777.714844 123.300781 L 777.714844 129.808594 L 764.726562 129.808594 Z M 764.726562 123.300781 " fill-opacity="1" fill-rule="nonzero"/><path fill="#8e68e6" d="M 745.242188 149.335938 L 751.738281 149.335938 L 751.738281 155.84375 L 745.242188 155.84375 Z M 745.242188 149.335938 " fill-opacity="1" fill-rule="nonzero"/><path fill="#8e68e6" d="M 771.21875 136.316406 L 784.210938 136.316406 L 784.210938 149.335938 L 771.21875 149.335938 Z M 771.21875 136.316406 " fill-opacity="1" fill-rule="nonzero"/><path fill="#8e68e6" d="M 680.296875 142.828125 L 693.285156 142.828125 L 693.285156 155.84375 L 680.296875 155.84375 Z M 680.296875 142.828125 " fill-opacity="1" fill-rule="nonzero"/><path fill="#8e68e6" d="M 628.339844 142.828125 L 634.835938 142.828125 L 634.835938 149.335938 L 628.339844 149.335938 Z M 628.339844 142.828125 " fill-opacity="1" fill-rule="nonzero"/><path fill="#8e68e6" d="M 615.351562 155.84375 L 621.847656 155.84375 L 621.847656 162.351562 L 615.351562 162.351562 Z M 615.351562 155.84375 " fill-opacity="1" fill-rule="nonzero"/><path fill="#8e68e6" d="M 628.339844 155.84375 L 641.332031 155.84375 L 641.332031 168.859375 L 628.339844 168.859375 Z M 628.339844 155.84375 " fill-opacity="1" fill-rule="nonzero"/><path fill="#8e68e6" d="M 712.769531 142.828125 L 706.273438 142.828125 L 706.273438 155.84375 L 738.746094 155.84375 L 738.746094 149.335938 L 712.769531 149.335938 Z M 712.769531 142.828125 " fill-opacity="1" fill-rule="nonzero"/><path fill="#8e68e6" d="M 810.1875 142.828125 L 823.175781 142.828125 L 823.175781 149.335938 L 810.1875 149.335938 Z M 810.1875 142.828125 " fill-opacity="1" fill-rule="nonzero"/><path fill="#8e68e6" d="M 797.199219 123.300781 L 797.199219 110.285156 L 790.703125 110.285156 L 790.703125 116.792969 L 784.210938 116.792969 L 784.210938 123.300781 L 790.703125 123.300781 L 790.703125 129.808594 L 810.1875 129.808594 L 810.1875 123.300781 Z M 797.199219 123.300781 " fill-opacity="1" fill-rule="nonzero"/><path fill="#8e68e6" d="M 732.253906 64.726562 L 738.746094 64.726562 L 738.746094 77.746094 L 732.253906 77.746094 Z M 732.253906 64.726562 " fill-opacity="1" fill-rule="nonzero"/><path fill="#8e68e6" d="M 745.242188 84.253906 L 745.242188 77.746094 L 738.746094 77.746094 L 738.746094 90.761719 L 751.738281 90.761719 L 751.738281 84.253906 Z M 745.242188 84.253906 " fill-opacity="1" fill-rule="nonzero"/><path fill="#8e68e6" d="M 751.738281 90.761719 L 758.230469 90.761719 L 758.230469 97.269531 L 751.738281 97.269531 Z M 751.738281 90.761719 " fill-opacity="1" fill-rule="nonzero"/><path fill="#8e68e6" d="M 784.210938 103.777344 L 784.210938 97.269531 L 758.230469 97.269531 L 758.230469 103.777344 L 764.726562 103.777344 L 764.726562 110.285156 L 790.703125 110.285156 L 790.703125 103.777344 Z M 784.210938 103.777344 " fill-opacity="1" fill-rule="nonzero"/><path fill="#8e68e6" d="M 888.121094 129.808594 L 894.617188 129.808594 L 894.617188 116.792969 L 888.121094 116.792969 L 888.121094 123.300781 L 862.144531 123.300781 L 862.144531 129.808594 L 810.1875 129.808594 L 810.1875 136.316406 L 829.671875 136.316406 L 829.671875 142.828125 L 862.144531 142.828125 L 862.144531 136.316406 L 888.121094 136.316406 Z M 888.121094 129.808594 " fill-opacity="1" fill-rule="nonzero"/><path fill="#8e68e6" d="M 907.605469 136.316406 L 907.605469 129.808594 L 901.109375 129.808594 L 901.109375 142.828125 L 907.605469 142.828125 L 907.605469 149.335938 L 920.59375 149.335938 L 920.59375 136.316406 Z M 907.605469 136.316406 " fill-opacity="1" fill-rule="nonzero"/><path fill="#8e68e6" d="M 920.59375 149.335938 L 933.582031 149.335938 L 933.582031 155.84375 L 920.59375 155.84375 Z M 920.59375 149.335938 " fill-opacity="1" fill-rule="nonzero"/><path fill="#8e68e6" d="M 933.582031 155.84375 L 946.570312 155.84375 L 946.570312 162.351562 L 933.582031 162.351562 Z M 933.582031 155.84375 " fill-opacity="1" fill-rule="nonzero"/><g clip-path="url(#05d1090b0b)"><path fill="#8e68e6" d="M 946.570312 149.335938 L 966.054688 149.335938 L 966.054688 155.84375 L 946.570312 155.84375 Z M 946.570312 149.335938 " fill-opacity="1" fill-rule="nonzero"/></g><path fill="#8e68e6" d="M 901.109375 149.335938 L 888.121094 149.335938 L 888.121094 155.84375 L 894.617188 155.84375 L 894.617188 162.351562 L 914.097656 162.351562 L 914.097656 155.84375 L 901.109375 155.84375 Z M 901.109375 149.335938 " fill-opacity="1" fill-rule="nonzero"/><path fill="#8e68e6" d="M 868.636719 142.828125 L 888.121094 142.828125 L 888.121094 149.335938 L 868.636719 149.335938 Z M 868.636719 142.828125 " fill-opacity="1" fill-rule="nonzero"/><path fill="#fb6ba2" d="M 712.769531 116.792969 L 712.769531 103.777344 L 706.273438 103.777344 L 706.273438 77.746094 L 693.285156 77.746094 L 693.285156 71.238281 L 699.78125 71.238281 L 699.78125 58.21875 L 693.285156 58.21875 L 693.285156 64.726562 L 686.792969 64.726562 L 686.792969 84.253906 L 693.285156 84.253906 L 693.285156 110.285156 L 699.78125 110.285156 L 699.78125 116.792969 L 706.273438 116.792969 L 706.273438 123.300781 L 719.265625 123.300781 L 719.265625 116.792969 Z M 712.769531 116.792969 " fill-opacity="1" fill-rule="nonzero"/><path fill="#fb6ba2" d="M 719.265625 123.300781 L 764.726562 123.300781 L 764.726562 129.808594 L 719.265625 129.808594 Z M 719.265625 123.300781 " fill-opacity="1" fill-rule="nonzero"/><path fill="#fb6ba2" d="M 712.769531 71.238281 L 712.769531 64.726562 L 706.273438 64.726562 L 706.273438 77.746094 L 712.769531 77.746094 Z M 712.769531 71.238281 " fill-opacity="1" fill-rule="nonzero"/><path fill="#fb6ba2" d="M 712.769531 58.21875 L 719.265625 58.21875 L 719.265625 64.726562 L 712.769531 64.726562 Z M 712.769531 58.21875 " fill-opacity="1" fill-rule="nonzero"/><path fill="#fb6ba2" d="M 764.726562 116.792969 L 771.21875 116.792969 L 771.21875 123.300781 L 764.726562 123.300781 Z M 764.726562 116.792969 " fill-opacity="1" fill-rule="nonzero"/><path fill="#fb6ba2" d="M 654.320312 129.808594 L 647.824219 129.808594 L 647.824219 142.828125 L 673.800781 142.828125 L 673.800781 136.316406 L 654.320312 136.316406 Z M 654.320312 129.808594 " fill-opacity="1" fill-rule="nonzero"/><path fill="#fb6ba2" d="M 582.878906 142.828125 L 576.386719 142.828125 L 576.386719 155.84375 L 595.867188 155.84375 L 595.867188 149.335938 L 582.878906 149.335938 Z M 582.878906 142.828125 " fill-opacity="1" fill-rule="nonzero"/><path fill="#fb6ba2" d="M 602.363281 149.335938 L 615.351562 149.335938 L 615.351562 155.84375 L 602.363281 155.84375 Z M 602.363281 149.335938 " fill-opacity="1" fill-rule="nonzero"/><g clip-path="url(#bff6a058df)"><path fill="#fb6ba2" d="M 758.230469 38.695312 L 764.726562 38.695312 L 764.726562 32.1875 L 751.738281 32.1875 L 751.738281 45.203125 L 758.230469 45.203125 Z M 758.230469 38.695312 " fill-opacity="1" fill-rule="nonzero"/></g><path fill="#fb6ba2" d="M 745.242188 71.238281 L 745.242188 51.710938 L 751.738281 51.710938 L 751.738281 45.203125 L 738.746094 45.203125 L 738.746094 77.746094 L 745.242188 77.746094 L 745.242188 84.253906 L 751.738281 84.253906 L 751.738281 71.238281 Z M 745.242188 71.238281 " fill-opacity="1" fill-rule="nonzero"/><path fill="#fb6ba2" d="M 751.738281 84.253906 L 758.230469 84.253906 L 758.230469 90.761719 L 751.738281 90.761719 Z M 751.738281 84.253906 " fill-opacity="1" fill-rule="nonzero"/><path fill="#fb6ba2" d="M 758.230469 90.761719 L 777.714844 90.761719 L 777.714844 97.269531 L 758.230469 97.269531 Z M 758.230469 90.761719 " fill-opacity="1" fill-rule="nonzero"/><path fill="#fb6ba2" d="M 751.738281 58.21875 L 758.230469 58.21875 L 758.230469 64.726562 L 751.738281 64.726562 Z M 751.738281 58.21875 " fill-opacity="1" fill-rule="nonzero"/><path fill="#fb6ba2" d="M 654.320312 116.792969 L 654.320312 110.285156 L 660.8125 110.285156 L 660.8125 103.777344 L 647.824219 103.777344 L 647.824219 110.285156 L 641.332031 110.285156 L 641.332031 129.808594 L 647.824219 129.808594 L 647.824219 116.792969 Z M 654.320312 116.792969 " fill-opacity="1" fill-rule="nonzero"/><path fill="#fb6ba2" d="M 680.296875 123.300781 L 673.800781 123.300781 L 673.800781 136.316406 L 686.792969 136.316406 L 686.792969 129.808594 L 680.296875 129.808594 Z M 680.296875 123.300781 " fill-opacity="1" fill-rule="nonzero"/><path fill="#fb6ba2" d="M 667.308594 110.285156 L 673.800781 110.285156 L 673.800781 123.300781 L 667.308594 123.300781 Z M 667.308594 110.285156 " fill-opacity="1" fill-rule="nonzero"/><path fill="#fb6ba2" d="M 777.714844 64.726562 L 784.210938 64.726562 L 784.210938 84.253906 L 777.714844 84.253906 Z M 777.714844 64.726562 " fill-opacity="1" fill-rule="nonzero"/><path fill="#fb6ba2" d="M 784.210938 84.253906 L 790.703125 84.253906 L 790.703125 97.269531 L 784.210938 97.269531 Z M 784.210938 84.253906 " fill-opacity="1" fill-rule="nonzero"/><path fill="#fb6ba2" d="M 790.703125 97.269531 L 803.691406 97.269531 L 803.691406 103.777344 L 790.703125 103.777344 Z M 790.703125 97.269531 " fill-opacity="1" fill-rule="nonzero"/><path fill="#fb6ba2" d="M 803.691406 103.777344 L 816.679688 103.777344 L 816.679688 110.285156 L 803.691406 110.285156 Z M 803.691406 103.777344 " fill-opacity="1" fill-rule="nonzero"/><path fill="#fb6ba2" d="M 875.132812 116.792969 L 849.152344 116.792969 L 849.152344 123.300781 L 816.679688 123.300781 L 816.679688 116.792969 L 803.691406 116.792969 L 803.691406 110.285156 L 797.199219 110.285156 L 797.199219 123.300781 L 810.1875 123.300781 L 810.1875 129.808594 L 862.144531 129.808594 L 862.144531 123.300781 L 888.121094 123.300781 L 888.121094 110.285156 L 875.132812 110.285156 Z M 875.132812 116.792969 " fill-opacity="1" fill-rule="nonzero"/><path fill="#fb6ba2" d="M 816.679688 97.269531 L 829.671875 97.269531 L 829.671875 103.777344 L 816.679688 103.777344 Z M 816.679688 97.269531 " fill-opacity="1" fill-rule="nonzero"/><path fill="#fb6ba2" d="M 829.671875 90.761719 L 836.164062 90.761719 L 836.164062 97.269531 L 829.671875 97.269531 Z M 829.671875 90.761719 " fill-opacity="1" fill-rule="nonzero"/><path fill="#fb6ba2" d="M 914.097656 129.808594 L 914.097656 123.300781 L 907.605469 123.300781 L 907.605469 136.316406 L 920.59375 136.316406 L 920.59375 129.808594 Z M 914.097656 129.808594 " fill-opacity="1" fill-rule="nonzero"/><path fill="#fb6ba2" d="M 927.085938 142.828125 L 927.085938 136.316406 L 920.59375 136.316406 L 920.59375 149.335938 L 933.582031 149.335938 L 933.582031 142.828125 Z M 927.085938 142.828125 " fill-opacity="1" fill-rule="nonzero"/><path fill="#fb6ba2" d="M 933.582031 149.335938 L 946.570312 149.335938 L 946.570312 155.84375 L 933.582031 155.84375 Z M 933.582031 149.335938 " fill-opacity="1" fill-rule="nonzero"/><g clip-path="url(#bc40c80188)"><path fill="#fb6ba2" d="M 959.558594 142.828125 L 959.558594 136.316406 L 953.066406 136.316406 L 953.066406 142.828125 L 946.570312 142.828125 L 946.570312 149.335938 L 966.054688 149.335938 L 966.054688 142.828125 Z M 959.558594 142.828125 " fill-opacity="1" fill-rule="nonzero"/></g><path fill="#fb6ba2" d="M 738.746094 97.269531 L 745.242188 97.269531 L 745.242188 103.777344 L 738.746094 103.777344 Z M 738.746094 97.269531 " fill-opacity="1" fill-rule="nonzero"/><path fill="#fb6ba2" d="M 745.242188 103.777344 L 751.738281 103.777344 L 751.738281 110.285156 L 745.242188 110.285156 Z M 745.242188 103.777344 " fill-opacity="1" fill-rule="nonzero"/><path fill="#fb6ba2" d="M 751.738281 110.285156 L 764.726562 110.285156 L 764.726562 116.792969 L 751.738281 116.792969 Z M 751.738281 110.285156 " fill-opacity="1" fill-rule="nonzero"/><path fill="#ffe14d" d="M 764.726562 45.203125 L 777.714844 45.203125 L 777.714844 51.710938 L 764.726562 51.710938 Z M 764.726562 45.203125 " fill-opacity="1" fill-rule="nonzero"/><path fill="#ffe14d" d="M 777.714844 38.695312 L 784.210938 38.695312 L 784.210938 45.203125 L 777.714844 45.203125 Z M 777.714844 38.695312 " fill-opacity="1" fill-rule="nonzero"/><path fill="#ffe14d" d="M 784.210938 45.203125 L 790.703125 45.203125 L 790.703125 51.710938 L 784.210938 51.710938 Z M 784.210938 45.203125 " fill-opacity="1" fill-rule="nonzero"/><path fill="#ffe14d" d="M 803.691406 51.710938 L 816.679688 51.710938 L 816.679688 58.21875 L 803.691406 58.21875 Z M 803.691406 51.710938 " fill-opacity="1" fill-rule="nonzero"/><path fill="#ffe14d" d="M 797.199219 64.726562 L 810.1875 64.726562 L 810.1875 71.238281 L 797.199219 71.238281 Z M 797.199219 64.726562 " fill-opacity="1" fill-rule="nonzero"/><path fill="#ffe14d" d="M 810.1875 77.746094 L 816.679688 77.746094 L 816.679688 84.253906 L 810.1875 84.253906 Z M 810.1875 77.746094 " fill-opacity="1" fill-rule="nonzero"/><path fill="#ffe14d" d="M 712.769531 45.203125 L 732.253906 45.203125 L 732.253906 51.710938 L 712.769531 51.710938 Z M 712.769531 45.203125 " fill-opacity="1" fill-rule="nonzero"/><g clip-path="url(#1562a8b1b6)"><path fill="#ffe14d" d="M 764.726562 32.1875 L 777.714844 32.1875 L 777.714844 38.695312 L 764.726562 38.695312 Z M 764.726562 32.1875 " fill-opacity="1" fill-rule="nonzero"/></g><path fill="#ffe14d" d="M 816.679688 58.21875 L 823.175781 58.21875 L 823.175781 64.726562 L 816.679688 64.726562 Z M 816.679688 58.21875 " fill-opacity="1" fill-rule="nonzero"/><path fill="#ffe14d" d="M 829.671875 71.238281 L 836.164062 71.238281 L 836.164062 77.746094 L 829.671875 77.746094 Z M 829.671875 71.238281 " fill-opacity="1" fill-rule="nonzero"/><path fill="#ffe14d" d="M 927.085938 123.300781 L 940.078125 123.300781 L 940.078125 129.808594 L 927.085938 129.808594 Z M 927.085938 123.300781 " fill-opacity="1" fill-rule="nonzero"/><path fill="#ffe14d" d="M 940.078125 129.808594 L 953.066406 129.808594 L 953.066406 136.316406 L 940.078125 136.316406 Z M 940.078125 129.808594 " fill-opacity="1" fill-rule="nonzero"/><path fill="#ffe14d" d="M 836.164062 84.253906 L 842.660156 84.253906 L 842.660156 97.269531 L 836.164062 97.269531 Z M 836.164062 84.253906 " fill-opacity="1" fill-rule="nonzero"/><path fill="#ffe14d" d="M 842.660156 97.269531 L 862.144531 97.269531 L 862.144531 103.777344 L 842.660156 103.777344 Z M 842.660156 97.269531 " fill-opacity="1" fill-rule="nonzero"/><path fill="#ffe14d" d="M 868.636719 103.777344 L 875.132812 103.777344 L 875.132812 110.285156 L 868.636719 110.285156 Z M 868.636719 103.777344 " fill-opacity="1" fill-rule="nonzero"/><path fill="#ffe14d" d="M 836.164062 103.777344 L 842.660156 103.777344 L 842.660156 110.285156 L 836.164062 110.285156 Z M 836.164062 103.777344 " fill-opacity="1" fill-rule="nonzero"/><path fill="#ffe14d" d="M 790.703125 71.238281 L 797.199219 71.238281 L 797.199219 77.746094 L 790.703125 77.746094 Z M 790.703125 71.238281 " fill-opacity="1" fill-rule="nonzero"/><g clip-path="url(#31229f63af)"><path fill="#ff999a" d="M 496.640625 233.347656 L 496.640625 226.074219 L 474.765625 226.074219 L 474.765625 211.53125 L 452.890625 211.53125 L 452.890625 204.261719 L 431.015625 204.261719 L 431.015625 211.53125 L 409.136719 211.53125 L 409.136719 218.804688 L 401.847656 218.804688 L 401.847656 204.261719 L 387.261719 204.261719 L 387.261719 196.988281 L 350.800781 196.988281 L 350.800781 204.261719 L 336.21875 204.261719 L 336.21875 211.53125 L 328.925781 211.53125 L 328.925781 218.804688 L 321.632812 218.804688 L 321.632812 226.074219 L 314.34375 226.074219 L 314.34375 233.347656 L 299.757812 233.347656 L 299.757812 226.074219 L 292.464844 226.074219 L 292.464844 218.804688 L 277.882812 218.804688 L 277.882812 211.53125 L 256.007812 211.53125 L 256.007812 218.804688 L 241.421875 218.804688 L 241.421875 204.261719 L 234.128906 204.261719 L 234.128906 196.988281 L 226.839844 196.988281 L 226.839844 189.71875 L 219.546875 189.71875 L 219.546875 182.445312 L 204.960938 182.445312 L 204.960938 175.175781 L 175.792969 175.175781 L 175.792969 182.445312 L 168.503906 182.445312 L 168.503906 189.71875 L 161.210938 189.71875 L 161.210938 196.988281 L 153.917969 196.988281 L 153.917969 204.261719 L 146.625 204.261719 L 146.625 196.988281 L 132.042969 196.988281 L 132.042969 204.261719 L 124.75 204.261719 L 124.75 211.53125 L 117.457031 211.53125 L 117.457031 218.804688 L 110.167969 218.804688 L 110.167969 226.074219 L 102.875 226.074219 L 102.875 240.617188 L 110.167969 240.617188 L 110.167969 247.890625 L 503.933594 247.890625 L 503.933594 240.617188 L 511.226562 240.617188 L 511.226562 233.347656 Z M 496.640625 233.347656 " fill-opacity="1" fill-rule="nonzero"/></g><g clip-path="url(#d117499a89)"><path fill="#5561d3" d="M 445.597656 240.617188 L 445.597656 233.347656 L 438.304688 233.347656 L 438.304688 240.617188 L 431.015625 240.617188 L 431.015625 233.347656 L 416.429688 233.347656 L 416.429688 226.074219 L 409.136719 226.074219 L 409.136719 218.804688 L 401.847656 218.804688 L 401.847656 226.074219 L 394.554688 226.074219 L 394.554688 233.347656 L 379.96875 233.347656 L 379.96875 240.617188 L 343.511719 240.617188 L 343.511719 233.347656 L 336.21875 233.347656 L 336.21875 218.804688 L 343.511719 218.804688 L 343.511719 211.53125 L 350.800781 211.53125 L 350.800781 204.261719 L 336.21875 204.261719 L 336.21875 211.53125 L 328.925781 211.53125 L 328.925781 218.804688 L 321.632812 218.804688 L 321.632812 226.074219 L 314.34375 226.074219 L 314.34375 233.347656 L 299.757812 233.347656 L 299.757812 240.617188 L 277.882812 240.617188 L 277.882812 233.347656 L 270.589844 233.347656 L 270.589844 240.617188 L 263.296875 240.617188 L 263.296875 233.347656 L 256.007812 233.347656 L 256.007812 218.804688 L 241.421875 218.804688 L 241.421875 226.074219 L 248.714844 226.074219 L 248.714844 233.347656 L 241.421875 233.347656 L 241.421875 240.617188 L 226.839844 240.617188 L 226.839844 233.347656 L 219.546875 233.347656 L 219.546875 240.617188 L 212.253906 240.617188 L 212.253906 233.347656 L 183.085938 233.347656 L 183.085938 240.617188 L 146.625 240.617188 L 146.625 233.347656 L 124.75 233.347656 L 124.75 226.074219 L 117.457031 226.074219 L 117.457031 218.804688 L 110.167969 218.804688 L 110.167969 226.074219 L 102.875 226.074219 L 102.875 240.617188 L 110.167969 240.617188 L 110.167969 247.890625 L 503.933594 247.890625 L 503.933594 240.617188 Z M 445.597656 240.617188 " fill-opacity="1" fill-rule="nonzero"/></g><path fill="#5561d3" d="M 153.917969 196.988281 L 161.210938 196.988281 L 161.210938 218.804688 L 153.917969 218.804688 Z M 153.917969 196.988281 " fill-opacity="1" fill-rule="nonzero"/><path fill="#5561d3" d="M 161.210938 218.804688 L 168.503906 218.804688 L 168.503906 226.074219 L 161.210938 226.074219 Z M 161.210938 218.804688 " fill-opacity="1" fill-rule="nonzero"/><path fill="#5561d3" d="M 168.503906 226.074219 L 183.085938 226.074219 L 183.085938 233.347656 L 168.503906 233.347656 Z M 168.503906 226.074219 " fill-opacity="1" fill-rule="nonzero"/><path fill="#5561d3" d="M 117.457031 211.53125 L 124.75 211.53125 L 124.75 218.804688 L 117.457031 218.804688 Z M 117.457031 211.53125 " fill-opacity="1" fill-rule="nonzero"/><path fill="#5561d3" d="M 161.210938 189.71875 L 168.503906 189.71875 L 168.503906 196.988281 L 161.210938 196.988281 Z M 161.210938 189.71875 " fill-opacity="1" fill-rule="nonzero"/><path fill="#5561d3" d="M 168.503906 182.445312 L 175.792969 182.445312 L 175.792969 189.71875 L 168.503906 189.71875 Z M 168.503906 182.445312 " fill-opacity="1" fill-rule="nonzero"/><path fill="#5561d3" d="M 409.136719 211.53125 L 431.015625 211.53125 L 431.015625 218.804688 L 409.136719 218.804688 Z M 409.136719 211.53125 " fill-opacity="1" fill-rule="nonzero"/><path fill="#8e68e6" d="M 117.457031 218.804688 L 124.75 218.804688 L 124.75 226.074219 L 117.457031 226.074219 Z M 117.457031 218.804688 " fill-opacity="1" fill-rule="nonzero"/><path fill="#8e68e6" d="M 124.75 226.074219 L 146.625 226.074219 L 146.625 233.347656 L 124.75 233.347656 Z M 124.75 226.074219 " fill-opacity="1" fill-rule="nonzero"/><path fill="#8e68e6" d="M 124.75 204.261719 L 132.042969 204.261719 L 132.042969 218.804688 L 124.75 218.804688 Z M 124.75 204.261719 " fill-opacity="1" fill-rule="nonzero"/><path fill="#8e68e6" d="M 168.503906 226.074219 L 161.210938 226.074219 L 161.210938 233.347656 L 146.625 233.347656 L 146.625 240.617188 L 183.085938 240.617188 L 183.085938 233.347656 L 168.503906 233.347656 Z M 168.503906 226.074219 " fill-opacity="1" fill-rule="nonzero"/><path fill="#8e68e6" d="M 183.085938 226.074219 L 183.085938 218.804688 L 175.792969 218.804688 L 175.792969 189.71875 L 168.503906 189.71875 L 168.503906 196.988281 L 161.210938 196.988281 L 161.210938 218.804688 L 168.503906 218.804688 L 168.503906 226.074219 Z M 183.085938 226.074219 " fill-opacity="1" fill-rule="nonzero"/><path fill="#8e68e6" d="M 183.085938 226.074219 L 212.253906 226.074219 L 212.253906 233.347656 L 183.085938 233.347656 Z M 183.085938 226.074219 " fill-opacity="1" fill-rule="nonzero"/><path fill="#8e68e6" d="M 212.253906 233.347656 L 219.546875 233.347656 L 219.546875 240.617188 L 212.253906 240.617188 Z M 212.253906 233.347656 " fill-opacity="1" fill-rule="nonzero"/><path fill="#8e68e6" d="M 234.128906 233.347656 L 226.839844 233.347656 L 226.839844 240.617188 L 241.421875 240.617188 L 241.421875 233.347656 L 248.714844 233.347656 L 248.714844 226.074219 L 234.128906 226.074219 Z M 234.128906 233.347656 " fill-opacity="1" fill-rule="nonzero"/><g clip-path="url(#88c6f2c141)"><path fill="#8e68e6" d="M 183.085938 182.445312 L 190.378906 182.445312 L 190.378906 175.175781 L 175.792969 175.175781 L 175.792969 189.71875 L 183.085938 189.71875 Z M 183.085938 182.445312 " fill-opacity="1" fill-rule="nonzero"/></g><path fill="#8e68e6" d="M 132.042969 196.988281 L 139.335938 196.988281 L 139.335938 204.261719 L 132.042969 204.261719 Z M 132.042969 196.988281 " fill-opacity="1" fill-rule="nonzero"/><path fill="#8e68e6" d="M 336.21875 218.804688 L 343.511719 218.804688 L 343.511719 233.347656 L 336.21875 233.347656 Z M 336.21875 218.804688 " fill-opacity="1" fill-rule="nonzero"/><path fill="#8e68e6" d="M 343.511719 233.347656 L 379.96875 233.347656 L 379.96875 240.617188 L 343.511719 240.617188 Z M 343.511719 233.347656 " fill-opacity="1" fill-rule="nonzero"/><path fill="#8e68e6" d="M 379.96875 226.074219 L 394.554688 226.074219 L 394.554688 233.347656 L 379.96875 233.347656 Z M 379.96875 226.074219 " fill-opacity="1" fill-rule="nonzero"/><path fill="#8e68e6" d="M 358.09375 204.261719 L 365.386719 204.261719 L 365.386719 196.988281 L 350.800781 196.988281 L 350.800781 211.53125 L 358.09375 211.53125 Z M 358.09375 204.261719 " fill-opacity="1" fill-rule="nonzero"/><path fill="#8e68e6" d="M 343.511719 211.53125 L 350.800781 211.53125 L 350.800781 218.804688 L 343.511719 218.804688 Z M 343.511719 211.53125 " fill-opacity="1" fill-rule="nonzero"/><path fill="#8e68e6" d="M 409.136719 226.074219 L 416.429688 226.074219 L 416.429688 233.347656 L 431.015625 233.347656 L 431.015625 240.617188 L 438.304688 240.617188 L 438.304688 226.074219 L 431.015625 226.074219 L 431.015625 218.804688 L 409.136719 218.804688 Z M 409.136719 226.074219 " fill-opacity="1" fill-rule="nonzero"/><g clip-path="url(#c219810255)"><path fill="#8e68e6" d="M 496.640625 233.347656 L 496.640625 226.074219 L 489.351562 226.074219 L 489.351562 233.347656 L 445.597656 233.347656 L 445.597656 240.617188 L 511.226562 240.617188 L 511.226562 233.347656 Z M 496.640625 233.347656 " fill-opacity="1" fill-rule="nonzero"/></g><path fill="#8e68e6" d="M 431.015625 204.261719 L 438.304688 204.261719 L 438.304688 218.804688 L 431.015625 218.804688 Z M 431.015625 204.261719 " fill-opacity="1" fill-rule="nonzero"/><path fill="#fb6ba2" d="M 438.304688 204.261719 L 445.597656 204.261719 L 445.597656 211.53125 L 438.304688 211.53125 Z M 438.304688 204.261719 " fill-opacity="1" fill-rule="nonzero"/><path fill="#fb6ba2" d="M 343.511719 218.804688 L 350.800781 218.804688 L 350.800781 233.347656 L 343.511719 233.347656 Z M 343.511719 218.804688 " fill-opacity="1" fill-rule="nonzero"/><path fill="#fb6ba2" d="M 379.96875 218.804688 L 401.847656 218.804688 L 401.847656 226.074219 L 379.96875 226.074219 Z M 379.96875 218.804688 " fill-opacity="1" fill-rule="nonzero"/><path fill="#fb6ba2" d="M 212.253906 226.074219 L 234.128906 226.074219 L 234.128906 233.347656 L 212.253906 233.347656 Z M 212.253906 226.074219 " fill-opacity="1" fill-rule="nonzero"/><path fill="#fb6ba2" d="M 234.128906 204.261719 L 241.421875 204.261719 L 241.421875 226.074219 L 234.128906 226.074219 Z M 234.128906 204.261719 " fill-opacity="1" fill-rule="nonzero"/><path fill="#fb6ba2" d="M 183.085938 218.804688 L 212.253906 218.804688 L 212.253906 226.074219 L 183.085938 226.074219 Z M 183.085938 218.804688 " fill-opacity="1" fill-rule="nonzero"/><path fill="#fb6ba2" d="M 175.792969 204.261719 L 183.085938 204.261719 L 183.085938 218.804688 L 175.792969 218.804688 Z M 175.792969 204.261719 " fill-opacity="1" fill-rule="nonzero"/><path fill="#fb6ba2" d="M 256.007812 218.804688 L 263.296875 218.804688 L 263.296875 233.347656 L 256.007812 233.347656 Z M 256.007812 218.804688 " fill-opacity="1" fill-rule="nonzero"/><path fill="#fb6ba2" d="M 263.296875 233.347656 L 270.589844 233.347656 L 270.589844 240.617188 L 263.296875 240.617188 Z M 263.296875 233.347656 " fill-opacity="1" fill-rule="nonzero"/><path fill="#fb6ba2" d="M 277.882812 233.347656 L 299.757812 233.347656 L 299.757812 240.617188 L 277.882812 240.617188 Z M 277.882812 233.347656 " fill-opacity="1" fill-rule="nonzero"/><path fill="#fb6ba2" d="M 438.304688 226.074219 L 489.351562 226.074219 L 489.351562 233.347656 L 438.304688 233.347656 Z M 438.304688 226.074219 " fill-opacity="1" fill-rule="nonzero"/><path fill="#fb6ba2" d="M 431.015625 218.804688 L 438.304688 218.804688 L 438.304688 226.074219 L 431.015625 226.074219 Z M 431.015625 218.804688 " fill-opacity="1" fill-rule="nonzero"/><path fill="#fb6ba2" d="M 183.085938 182.445312 L 190.378906 182.445312 L 190.378906 189.71875 L 183.085938 189.71875 Z M 183.085938 182.445312 " fill-opacity="1" fill-rule="nonzero"/><g clip-path="url(#f903e4636b)"><path fill="#fb6ba2" d="M 190.378906 175.175781 L 204.960938 175.175781 L 204.960938 182.445312 L 190.378906 182.445312 Z M 190.378906 175.175781 " fill-opacity="1" fill-rule="nonzero"/></g><path fill="#fb6ba2" d="M 139.335938 196.988281 L 146.625 196.988281 L 146.625 204.261719 L 139.335938 204.261719 Z M 139.335938 196.988281 " fill-opacity="1" fill-rule="nonzero"/><path fill="#fb6ba2" d="M 190.378906 196.988281 L 197.671875 196.988281 L 197.671875 211.53125 L 190.378906 211.53125 Z M 190.378906 196.988281 " fill-opacity="1" fill-rule="nonzero"/><path fill="#fb6ba2" d="M 204.960938 204.261719 L 219.546875 204.261719 L 219.546875 211.53125 L 204.960938 211.53125 Z M 204.960938 204.261719 " fill-opacity="1" fill-rule="nonzero"/><path fill="#fb6ba2" d="M 372.679688 204.261719 L 387.261719 204.261719 L 387.261719 211.53125 L 372.679688 211.53125 Z M 372.679688 204.261719 " fill-opacity="1" fill-rule="nonzero"/><path fill="#fb6ba2" d="M 365.386719 226.074219 L 379.96875 226.074219 L 379.96875 233.347656 L 365.386719 233.347656 Z M 365.386719 226.074219 " fill-opacity="1" fill-rule="nonzero"/><path fill="#fb6ba2" d="M 146.625 226.074219 L 161.210938 226.074219 L 161.210938 233.347656 L 146.625 233.347656 Z M 146.625 226.074219 " fill-opacity="1" fill-rule="nonzero"/><path fill="#ffe14d" d="M 365.386719 196.988281 L 387.261719 196.988281 L 387.261719 204.261719 L 365.386719 204.261719 Z M 365.386719 196.988281 " fill-opacity="1" fill-rule="nonzero"/><path fill="#ffe14d" d="M 394.554688 204.261719 L 401.847656 204.261719 L 401.847656 211.53125 L 394.554688 211.53125 Z M 394.554688 204.261719 " fill-opacity="1" fill-rule="nonzero"/><path fill="#ffe14d" d="M 445.597656 204.261719 L 452.890625 204.261719 L 452.890625 211.53125 L 445.597656 211.53125 Z M 445.597656 204.261719 " fill-opacity="1" fill-rule="nonzero"/><path fill="#ffe14d" d="M 460.183594 211.53125 L 474.765625 211.53125 L 474.765625 218.804688 L 460.183594 218.804688 Z M 460.183594 211.53125 " fill-opacity="1" fill-rule="nonzero"/><path fill="#ffe14d" d="M 263.296875 211.53125 L 277.882812 211.53125 L 277.882812 218.804688 L 263.296875 218.804688 Z M 263.296875 211.53125 " fill-opacity="1" fill-rule="nonzero"/><path fill="#ffe14d" d="M 285.175781 218.804688 L 292.464844 218.804688 L 292.464844 226.074219 L 285.175781 226.074219 Z M 285.175781 218.804688 " fill-opacity="1" fill-rule="nonzero"/><path fill="#ffe14d" d="M 212.253906 182.445312 L 219.546875 182.445312 L 219.546875 189.71875 L 212.253906 189.71875 Z M 212.253906 182.445312 " fill-opacity="1" fill-rule="nonzero"/><path fill="#ffe14d" d="M 219.546875 189.71875 L 226.839844 189.71875 L 226.839844 196.988281 L 219.546875 196.988281 Z M 219.546875 189.71875 " fill-opacity="1" fill-rule="nonzero"/><path fill="#ffe14d" d="M 226.839844 196.988281 L 234.128906 196.988281 L 234.128906 204.261719 L 226.839844 204.261719 Z M 226.839844 196.988281 " fill-opacity="1" fill-rule="nonzero"/><path fill="#ffe14d" d="M 146.625 204.261719 L 153.917969 204.261719 L 153.917969 211.53125 L 146.625 211.53125 Z M 146.625 204.261719 " fill-opacity="1" fill-rule="nonzero"/></svg>