<svg xmlns="http://www.w3.org/2000/svg" xmlns:xlink="http://www.w3.org/1999/xlink" width="1080" zoomAndPan="magnify" viewBox="0 0 810 809.999993" height="1080" preserveAspectRatio="xMidYMid meet" version="1.0"><path fill="#160059" d="M 621 729 L 621 567 L 594 567 L 594 432 L 567 432 L 567 378 L 540 378 L 540 351 L 513 351 L 513 324 L 540 324 L 540 243 L 567 243 L 567 81 L 540 81 L 540 54 L 513 54 L 513 27 L 459 27 L 459 0 L 351 0 L 351 27 L 297 27 L 297 54 L 270 54 L 270 81 L 243 81 L 243 162 L 216 162 L 216 216 L 243 216 L 243 243 L 270 243 L 270 324 L 297 324 L 297 351 L 270 351 L 270 378 L 243 378 L 243 432 L 216 432 L 216 567 L 189 567 L 189 729 L 162 729 L 162 783 L 189 783 L 189 810 L 621 810 L 621 783 L 648 783 L 648 729 Z M 621 729 " fill-opacity="1" fill-rule="nonzero"/><path fill="#d5191a" d="M 297 351 L 324 351 L 324 378 L 297 378 Z M 297 351 " fill-opacity="1" fill-rule="nonzero"/><path fill="#d5191a" d="M 621 729 L 621 567 L 594 567 L 594 432 L 567 432 L 567 378 L 540 378 L 540 351 L 486 351 L 486 378 L 513 378 L 513 729 L 297 729 L 297 378 L 270 378 L 270 432 L 243 432 L 243 567 L 216 567 L 216 729 L 189 729 L 189 783 L 648 783 L 648 729 Z M 621 729 " fill-opacity="1" fill-rule="nonzero"/><path fill="#ff8976" d="M 270 108 L 270 243 L 297 243 L 297 270 L 324 270 L 324 297 L 378 297 L 378 324 L 432 324 L 432 297 L 486 297 L 486 270 L 513 270 L 513 243 L 540 243 L 540 108 Z M 270 108 " fill-opacity="1" fill-rule="nonzero"/><path fill="#7b1e13" d="M 297 270 L 324 270 L 324 324 L 297 324 Z M 297 270 " fill-opacity="1" fill-rule="nonzero"/><path fill="#7b1e13" d="M 297 297 L 378 297 L 378 324 L 297 324 Z M 297 297 " fill-opacity="1" fill-rule="nonzero"/><path fill="#7b1e13" d="M 432 297 L 513 297 L 513 324 L 432 324 Z M 432 297 " fill-opacity="1" fill-rule="nonzero"/><path fill="#7b1e13" d="M 486 270 L 513 270 L 513 324 L 486 324 Z M 486 270 " fill-opacity="1" fill-rule="nonzero"/><path fill="#7b1e13" d="M 324 324 L 486 324 L 486 351 L 324 351 Z M 324 324 " fill-opacity="1" fill-rule="nonzero"/><path fill="#7b1e13" d="M 378 324 L 432 324 L 432 378 L 378 378 Z M 378 324 " fill-opacity="1" fill-rule="nonzero"/><path fill="#7b1e13" d="M 378 270 L 432 270 L 432 297 L 378 297 Z M 378 270 " fill-opacity="1" fill-rule="nonzero"/><path fill="#5b3759" d="M 297 702 L 378 702 L 378 783 L 297 783 Z M 297 702 " fill-opacity="1" fill-rule="nonzero"/><path fill="#5b3759" d="M 513 729 L 513 567 L 486 567 L 486 540 L 513 540 L 513 378 L 486 378 L 486 351 L 432 351 L 432 378 L 378 378 L 378 351 L 324 351 L 324 378 L 297 378 L 297 540 L 324 540 L 324 567 L 297 567 L 297 729 L 270 729 L 270 783 L 297 783 L 297 810 L 513 810 L 513 783 L 540 783 L 540 729 Z M 513 729 " fill-opacity="1" fill-rule="nonzero"/><path fill="#ff8976" d="M 297 540 L 297 513 L 270 513 L 270 540 L 243 540 L 243 594 L 270 594 L 270 621 L 297 621 L 297 567 L 324 567 L 324 540 Z M 297 540 " fill-opacity="1" fill-rule="nonzero"/><path fill="#ff8976" d="M 513 540 L 513 513 L 540 513 L 540 540 L 567 540 L 567 594 L 540 594 L 540 621 L 513 621 L 513 567 L 486 567 L 486 540 Z M 513 540 " fill-opacity="1" fill-rule="nonzero"/><path fill="#5b3759" d="M 405 162 L 297 162 L 297 243 L 324 243 L 324 270 L 378 270 L 378 243 L 405 243 Z M 405 162 " fill-opacity="1" fill-rule="nonzero"/><path fill="#7b1e13" d="M 540 81 L 540 54 L 513 54 L 513 27 L 459 27 L 459 0 L 351 0 L 351 27 L 297 27 L 297 54 L 270 54 L 270 81 L 243 81 L 243 162 L 216 162 L 216 216 L 243 216 L 243 243 L 297 243 L 297 216 L 324 216 L 324 189 L 351 189 L 351 162 L 378 162 L 378 135 L 459 135 L 459 162 L 486 162 L 486 189 L 513 189 L 513 243 L 567 243 L 567 81 Z M 540 81 " fill-opacity="1" fill-rule="nonzero"/><path fill="#160059" d="M 351 0 L 405 0 L 405 27 L 351 27 Z M 351 0 " fill-opacity="1" fill-rule="nonzero"/><path fill="#160059" d="M 405 0 L 459 0 L 459 27 L 405 27 Z M 405 0 " fill-opacity="0.5" fill-rule="nonzero"/><path fill="#160059" d="M 297 27 L 351 27 L 351 54 L 297 54 Z M 297 27 " fill-opacity="1" fill-rule="nonzero"/><path fill="#160059" d="M 270 54 L 297 54 L 297 81 L 270 81 Z M 270 54 " fill-opacity="1" fill-rule="nonzero"/><path fill="#160059" d="M 243 81 L 270 81 L 270 162 L 243 162 Z M 243 81 " fill-opacity="1" fill-rule="nonzero"/><path fill="#160059" d="M 216 162 L 243 162 L 243 216 L 216 216 Z M 216 162 " fill-opacity="1" fill-rule="nonzero"/><path fill="#160059" d="M 243 216 L 297 216 L 297 243 L 243 243 Z M 243 216 " fill-opacity="1" fill-rule="nonzero"/><path fill="#160059" d="M 297 189 L 324 189 L 324 216 L 297 216 Z M 297 189 " fill-opacity="1" fill-rule="nonzero"/><path fill="#160059" d="M 324 162 L 351 162 L 351 189 L 324 189 Z M 324 162 " fill-opacity="1" fill-rule="nonzero"/><path fill="#160059" d="M 351 135 L 378 135 L 378 162 L 351 162 Z M 351 135 " fill-opacity="1" fill-rule="nonzero"/><path fill="#160059" d="M 378 108 L 459 108 L 459 135 L 378 135 Z M 378 108 " fill-opacity="1" fill-rule="nonzero"/><path fill="#160059" d="M 459 135 L 486 135 L 486 162 L 459 162 Z M 459 135 " fill-opacity="1" fill-rule="nonzero"/><path fill="#160059" d="M 486 162 L 513 162 L 513 189 L 486 189 Z M 486 162 " fill-opacity="1" fill-rule="nonzero"/><path fill="#160059" d="M 513 189 L 540 189 L 540 216 L 513 216 Z M 513 189 " fill-opacity="1" fill-rule="nonzero"/><path fill="#160059" d="M 513 54 L 540 54 L 540 81 L 513 81 Z M 513 54 " fill-opacity="0.5" fill-rule="nonzero"/><path fill="#160059" d="M 459 27 L 513 27 L 513 54 L 459 54 Z M 459 27 " fill-opacity="0.5" fill-rule="nonzero"/><path fill="#160059" d="M 270 216 L 297 216 L 297 324 L 270 324 Z M 270 216 " fill-opacity="1" fill-rule="nonzero"/><path fill="#160059" d="M 297 324 L 351 324 L 351 351 L 297 351 Z M 297 324 " fill-opacity="1" fill-rule="nonzero"/><path fill="#160059" d="M 351 351 L 378 351 L 378 378 L 351 378 Z M 351 351 " fill-opacity="1" fill-rule="nonzero"/><path fill="#160059" d="M 378 378 L 432 378 L 432 405 L 378 405 Z M 378 378 " fill-opacity="1" fill-rule="nonzero"/><path fill="#160059" d="M 432 351 L 459 351 L 459 378 L 432 378 Z M 432 351 " fill-opacity="1" fill-rule="nonzero"/><path fill="#160059" d="M 459 324 L 513 324 L 513 351 L 459 351 Z M 459 324 " fill-opacity="1" fill-rule="nonzero"/><path fill="#160059" d="M 513 243 L 540 243 L 540 324 L 513 324 Z M 513 243 " fill-opacity="1" fill-rule="nonzero"/><path fill="#160059" d="M 270 351 L 297 351 L 297 378 L 270 378 Z M 270 351 " fill-opacity="1" fill-rule="nonzero"/><path fill="#160059" d="M 243 378 L 270 378 L 270 432 L 243 432 Z M 243 378 " fill-opacity="1" fill-rule="nonzero"/><path fill="#160059" d="M 216 432 L 243 432 L 243 567 L 216 567 Z M 216 432 " fill-opacity="1" fill-rule="nonzero"/><path fill="#160059" d="M 189 567 L 216 567 L 216 729 L 189 729 Z M 189 567 " fill-opacity="1" fill-rule="nonzero"/><path fill="#160059" d="M 162 729 L 189 729 L 189 783 L 162 783 Z M 162 729 " fill-opacity="1" fill-rule="nonzero"/><path fill="#160059" d="M 567 432 L 594 432 L 594 567 L 567 567 Z M 567 432 " fill-opacity="0.5" fill-rule="nonzero"/><path fill="#160059" d="M 594 567 L 621 567 L 621 729 L 594 729 Z M 594 567 " fill-opacity="0.5" fill-rule="nonzero"/><path fill="#160059" d="M 621 729 L 648 729 L 648 783 L 621 783 Z M 621 729 " fill-opacity="0.5" fill-rule="nonzero"/><path fill="#160059" d="M 270 729 L 297 729 L 297 783 L 270 783 Z M 270 729 " fill-opacity="1" fill-rule="nonzero"/><path fill="#160059" d="M 189 783 L 621 783 L 621 810 L 189 810 Z M 189 783 " fill-opacity="1" fill-rule="nonzero"/><path fill="#160059" d="M 513 729 L 540 729 L 540 783 L 513 783 Z M 513 729 " fill-opacity="1" fill-rule="nonzero"/><path fill="#160059" d="M 378 621 L 432 621 L 432 810 L 378 810 Z M 378 621 " fill-opacity="1" fill-rule="nonzero"/><path fill="#160059" d="M 243 540 L 270 540 L 270 594 L 243 594 Z M 243 540 " fill-opacity="0.5" fill-rule="nonzero"/><path fill="#160059" d="M 540 540 L 567 540 L 567 594 L 540 594 Z M 540 540 " fill-opacity="0.5" fill-rule="nonzero"/><path fill="#160059" d="M 270 594 L 297 594 L 297 621 L 270 621 Z M 270 594 " fill-opacity="0.5" fill-rule="nonzero"/><path fill="#160059" d="M 513 594 L 540 594 L 540 621 L 513 621 Z M 513 594 " fill-opacity="0.5" fill-rule="nonzero"/><path fill="#160059" d="M 270 513 L 297 513 L 297 540 L 270 540 Z M 270 513 " fill-opacity="0.5" fill-rule="nonzero"/><path fill="#160059" d="M 513 513 L 540 513 L 540 540 L 513 540 Z M 513 513 " fill-opacity="0.5" fill-rule="nonzero"/><path fill="#160059" d="M 297 540 L 324 540 L 324 567 L 297 567 Z M 297 540 " fill-opacity="1" fill-rule="nonzero"/><path fill="#160059" d="M 486 540 L 513 540 L 513 567 L 486 567 Z M 486 540 " fill-opacity="1" fill-rule="nonzero"/><path fill="#160059" d="M 351 729 L 297 729 L 297 756 L 351 756 L 351 783 L 378 783 L 378 729 Z M 351 729 " fill-opacity="0.5" fill-rule="nonzero"/><path fill="#160059" d="M 459 729 L 513 729 L 513 756 L 459 756 L 459 783 L 432 783 L 432 729 Z M 459 729 " fill-opacity="0.5" fill-rule="nonzero"/><path fill="#160059" d="M 297 621 L 324 621 L 324 729 L 297 729 Z M 297 621 " fill-opacity="1" fill-rule="nonzero"/><path fill="#160059" d="M 486 621 L 513 621 L 513 729 L 486 729 Z M 486 621 " fill-opacity="1" fill-rule="nonzero"/><path fill="#160059" d="M 297 513 L 513 513 L 513 540 L 297 540 Z M 297 513 " fill-opacity="1" fill-rule="nonzero"/><path fill="#160059" d="M 351 594 L 459 594 L 459 621 L 351 621 Z M 351 594 " fill-opacity="0.5" fill-rule="nonzero"/><path fill="#160059" d="M 405 405 L 405 513 L 378 513 L 378 405 Z M 405 405 " fill-opacity="0.5" fill-rule="nonzero"/><path fill="#160059" d="M 405 432 L 432 432 L 432 459 L 405 459 Z M 405 432 " fill-opacity="1" fill-rule="nonzero"/><path fill="#160059" d="M 405 486 L 432 486 L 432 513 L 405 513 Z M 405 486 " fill-opacity="1" fill-rule="nonzero"/><path fill="#160059" d="M 297 378 L 324 378 L 324 540 L 297 540 Z M 297 378 " fill-opacity="1" fill-rule="nonzero"/><path fill="#160059" d="M 486 378 L 513 378 L 513 540 L 486 540 Z M 486 378 " fill-opacity="1" fill-rule="nonzero"/><path fill="#160059" d="M 459 351 L 486 351 L 486 378 L 459 378 Z M 459 351 " fill-opacity="0.5" fill-rule="nonzero"/><path fill="#160059" d="M 324 351 L 351 351 L 351 378 L 324 378 Z M 324 351 " fill-opacity="0.5" fill-rule="nonzero"/><path fill="#160059" d="M 270 378 L 297 378 L 297 513 L 270 513 Z M 270 378 " fill-opacity="0.5" fill-rule="nonzero"/><path fill="#160059" d="M 297 351 L 324 351 L 324 486 L 297 486 Z M 297 351 " fill-opacity="0.5" fill-rule="nonzero"/><path fill="#160059" d="M 540 378 L 540 351 L 486 351 L 486 486 L 513 486 L 513 513 L 540 513 L 540 432 L 567 432 L 567 378 Z M 540 378 " fill-opacity="0.5" fill-rule="nonzero"/><path fill="#160059" d="M 513 621 L 540 621 L 540 756 L 513 756 Z M 513 621 " fill-opacity="0.5" fill-rule="nonzero"/><path fill="#160059" d="M 270 621 L 297 621 L 297 756 L 270 756 Z M 270 621 " fill-opacity="0.5" fill-rule="nonzero"/><path fill="#160059" d="M 243 729 L 270 729 L 270 783 L 243 783 Z M 243 729 " fill-opacity="0.5" fill-rule="nonzero"/><path fill="#160059" d="M 540 729 L 567 729 L 567 783 L 540 783 Z M 540 729 " fill-opacity="0.5" fill-rule="nonzero"/><path fill="#160059" d="M 432 216 L 486 216 L 486 243 L 432 243 Z M 432 216 " fill-opacity="1" fill-rule="nonzero"/><path fill="#5b3759" d="M 432 243 L 459 243 L 459 270 L 432 270 Z M 432 243 " fill-opacity="1" fill-rule="nonzero"/><path fill="#5b3759" d="M 432 108 L 459 108 L 459 135 L 432 135 Z M 432 108 " fill-opacity="1" fill-rule="nonzero"/><path fill="#5b3759" d="M 459 81 L 486 81 L 486 108 L 459 108 Z M 459 81 " fill-opacity="1" fill-rule="nonzero"/><path fill="#5b3759" d="M 486 54 L 513 54 L 513 81 L 486 81 Z M 486 54 " fill-opacity="1" fill-rule="nonzero"/><path fill="#160059" d="M 378 135 L 459 135 L 459 162 L 378 162 Z M 378 135 " fill-opacity="0.5" fill-rule="nonzero"/><path fill="#160059" d="M 297 135 L 378 135 L 378 162 L 297 162 Z M 297 135 " fill-opacity="0.5" fill-rule="nonzero"/><path fill="#160059" d="M 270 81 L 324 81 L 324 108 L 270 108 Z M 270 81 " fill-opacity="0.5" fill-rule="nonzero"/><path fill="#160059" d="M 324 108 L 351 108 L 351 135 L 324 135 Z M 324 108 " fill-opacity="0.5" fill-rule="nonzero"/><path fill="#160059" d="M 351 81 L 378 81 L 378 108 L 351 108 Z M 351 81 " fill-opacity="0.5" fill-rule="nonzero"/><path fill="#160059" d="M 378 54 L 405 54 L 405 81 L 378 81 Z M 378 54 " fill-opacity="0.5" fill-rule="nonzero"/><path fill="#160059" d="M 405 81 L 432 81 L 432 108 L 405 108 Z M 405 81 " fill-opacity="0.5" fill-rule="nonzero"/><path fill="#160059" d="M 459 108 L 486 108 L 486 135 L 459 135 Z M 459 108 " fill-opacity="0.5" fill-rule="nonzero"/><path fill="#160059" d="M 486 81 L 513 81 L 513 108 L 486 108 Z M 486 81 " fill-opacity="0.5" fill-rule="nonzero"/><path fill="#160059" d="M 540 81 L 540 135 L 513 135 L 513 162 L 540 162 L 540 243 L 567 243 L 567 81 Z M 540 81 " fill-opacity="0.5" fill-rule="nonzero"/><path fill="#160059" d="M 270 162 L 297 162 L 297 189 L 270 189 Z M 270 162 " fill-opacity="0.5" fill-rule="nonzero"/><path fill="#160059" d="M 324 270 L 351 270 L 351 297 L 324 297 Z M 324 270 " fill-opacity="0.2" fill-rule="nonzero"/><path fill="#160059" d="M 351 297 L 378 297 L 378 324 L 351 324 Z M 351 297 " fill-opacity="0.5" fill-rule="nonzero"/><path fill="#160059" d="M 432 297 L 459 297 L 459 324 L 432 324 Z M 432 297 " fill-opacity="0.5" fill-rule="nonzero"/><path fill="#160059" d="M 378 162 L 405 162 L 405 189 L 378 189 Z M 378 162 " fill-opacity="0.5" fill-rule="nonzero"/><path fill="#160059" d="M 351 216 L 378 216 L 378 243 L 351 243 Z M 351 216 " fill-opacity="0.5" fill-rule="nonzero"/><path fill="#160059" d="M 324 243 L 351 243 L 351 270 L 324 270 Z M 324 243 " fill-opacity="0.5" fill-rule="nonzero"/><path fill="#160059" d="M 297 243 L 324 243 L 324 270 L 297 270 Z M 297 243 " fill-opacity="0.2" fill-rule="nonzero"/><path fill="#160059" d="M 486 243 L 513 243 L 513 270 L 486 270 Z M 486 243 " fill-opacity="0.2" fill-rule="nonzero"/><path fill="#160059" d="M 513 216 L 540 216 L 540 243 L 513 243 Z M 513 216 " fill-opacity="0.2" fill-rule="nonzero"/><path fill="#160059" d="M 432 162 L 486 162 L 486 189 L 432 189 Z M 432 162 " fill-opacity="0.2" fill-rule="nonzero"/><path fill="#160059" d="M 459 270 L 486 270 L 486 297 L 459 297 Z M 459 270 " fill-opacity="0.2" fill-rule="nonzero"/><path fill="#5b3759" d="M 405 135 L 432 135 L 432 162 L 405 162 Z M 405 135 " fill-opacity="1" fill-rule="nonzero"/></svg>